<svg width="32" height="32" viewBox="0 0 32 32" fill="none" xmlns="http://www.w3.org/2000/svg">
<g clip-path="url(#clip0_17_94)">
<path d="M24.1289 29.7161H18.8787C18.0301 29.7161 17.3422 29.0281 17.3422 28.1795C17.3422 27.3309 18.0301 26.6429 18.8787 26.6429H24.1289C24.9775 26.6429 25.6655 27.3309 25.6655 28.1795C25.6655 29.0281 24.9775 29.7161 24.1289 29.7161Z" fill="#EDA751"/>
<path opacity="0.2" d="M24.1289 29.7161H18.8787C18.0301 29.7161 17.3422 29.0281 17.3422 28.1795C17.3422 27.3309 18.0301 26.6429 18.8787 26.6429H24.1289C24.9775 26.6429 25.6655 27.3309 25.6655 28.1795C25.6655 29.0281 24.9775 29.7161 24.1289 29.7161Z" fill="#A35F00"/>
<path d="M5.83953 29.2392C5.11903 29.2392 4.51141 28.9994 4.04753 28.7194C2.59628 27.8431 2.25891 26.4162 1.96128 25.1572C1.6536 23.8558 1.41803 23.0318 0.490597 22.5117C0.0279723 22.2523 -0.136715 21.6669 0.122722 21.2043C0.382035 20.7418 0.96716 20.5767 1.4301 20.8364C3.14022 21.7954 3.52291 23.4144 3.83047 24.7153C4.10903 25.8936 4.3166 26.6381 5.04029 27.075C5.48947 27.3461 6.07978 27.5323 7.05278 26.8575C7.8716 26.2896 8.6386 25.3434 9.31535 24.5085C9.39466 24.4107 9.47222 24.315 9.54803 24.2222C9.88378 23.8114 10.4888 23.7506 10.8993 24.086C11.3101 24.4216 11.371 25.0266 11.0355 25.4373C10.9612 25.5283 10.8852 25.6221 10.8075 25.718C10.0874 26.6063 9.19129 27.7118 8.14754 28.4357C7.29547 29.0269 6.51753 29.2392 5.83953 29.2392Z" fill="#EDA751"/>
<path opacity="0.2" d="M10.8996 24.0861C10.489 23.7507 9.88399 23.8114 9.54824 24.2222C9.47249 24.3151 9.39487 24.4107 9.31556 24.5086C8.63881 25.3434 7.87181 26.2896 7.05299 26.8576C6.89549 26.9668 6.74812 27.0532 6.60968 27.1206C6.95718 27.6702 7.37399 28.1767 7.84893 28.6293C7.94749 28.5697 8.04706 28.5056 8.14774 28.4358C9.19149 27.7119 10.0876 26.6064 10.8077 25.7181C10.8854 25.6222 10.9614 25.5284 11.0357 25.4374C11.3712 25.0267 11.3103 24.4217 10.8996 24.0861Z" fill="#C18F00"/>
<path d="M1.43052 20.8364C0.967587 20.5767 0.382462 20.7418 0.123149 21.2043C-0.136288 21.6669 0.0283995 22.2523 0.491025 22.5117C0.711275 22.6352 0.892149 22.7761 1.04459 22.9363C1.47515 22.6547 1.9624 22.1556 2.22584 21.4078C1.99802 21.2001 1.73577 21.0076 1.43052 20.8364Z" fill="#FCD79D"/>
<path d="M13.7819 29.7162C17.6962 29.7162 20.8694 26.7677 20.8694 23.1306C20.8694 19.4934 17.6962 16.5449 13.7819 16.5449C9.86758 16.5449 6.6944 19.4934 6.6944 23.1306C6.6944 26.7677 9.86758 29.7162 13.7819 29.7162Z" fill="#FCD690"/>
<path opacity="0.1" d="M12.7472 29.6459C9.50857 27.5196 10.5123 23.1616 11.062 21.2558V17.0477C8.49789 18.0389 6.69489 20.3889 6.69489 23.1304C6.69489 26.4409 9.32364 29.1804 12.7472 29.6459Z" fill="#C18F00"/>
<path d="M9.46908 11.711C10.8559 10.5473 11.7818 8.59381 9.8257 5.70606C7.85414 2.7955 4.91883 2.06587 2.62714 2.33587C2.06214 2.40244 1.58814 2.80019 1.42445 3.34506C0.760638 5.555 0.969388 8.57244 3.49339 11.0194C5.9977 13.4473 8.08226 12.8747 9.46908 11.711Z" fill="#EDA751"/>
<path d="M1.33225 3.68319C0.788065 5.85606 1.09575 8.69488 3.49344 11.0194C5.664 13.1238 7.51894 12.9734 8.87788 12.1384C7.94332 5.79388 3.86063 4.11138 1.33225 3.68319Z" fill="#FF91AB"/>
<path d="M18.0951 11.711C16.7083 10.5473 15.7824 8.59381 17.7385 5.70606C19.7101 2.7955 22.6454 2.06587 24.9371 2.33587C25.5021 2.40244 25.9761 2.80019 26.1397 3.34506C26.8036 5.555 26.5947 8.57244 24.0708 11.0194C21.5666 13.4473 19.4819 12.8747 18.0951 11.711Z" fill="#EDA751"/>
<path d="M26.232 3.68319C26.7762 5.85606 26.4685 8.69488 24.0708 11.0194C21.9002 13.1238 20.0453 12.9734 18.6863 12.1384C19.621 5.79388 23.7037 4.11138 26.232 3.68319Z" fill="#FF91AB"/>
<path d="M25.8481 13.4674C25.8481 18.9842 20.4459 21.4006 13.7821 21.4006C7.11831 21.4006 1.71625 18.9842 1.71625 13.4674C1.71625 7.9505 7.11837 3.47819 13.7821 3.47819C20.4459 3.47819 25.8481 7.9505 25.8481 13.4674Z" fill="#FCD690"/>
<path opacity="0.1" d="M7.3395 5.02044C3.96031 6.79069 1.71619 9.91188 1.71619 13.4673C1.71619 18.2098 5.70819 20.6611 11.062 21.2558C3.37675 16.6652 4.37906 10.4904 7.3395 5.02044Z" fill="#C18F00"/>
<path d="M8.70623 15.5166C9.9128 15.5166 10.8909 14.7377 10.8909 13.7768C10.8909 12.816 9.9128 12.0371 8.70623 12.0371C7.49966 12.0371 6.52155 12.816 6.52155 13.7768C6.52155 14.7377 7.49966 15.5166 8.70623 15.5166Z" fill="#FF91AB"/>
<path d="M20.5481 15.5166C21.7547 15.5166 22.7328 14.7376 22.7328 13.7768C22.7328 12.816 21.7547 12.0371 20.5481 12.0371C19.3415 12.0371 18.3634 12.816 18.3634 13.7768C18.3634 14.7376 19.3415 15.5166 20.5481 15.5166Z" fill="#FF91AB"/>
<path d="M9.97961 12.5101C9.72068 12.5101 9.51086 12.3002 9.51086 12.0413V11.2698C9.51086 11.0109 9.72068 10.8011 9.97961 10.8011C10.2386 10.8011 10.4484 11.0109 10.4484 11.2698V12.0413C10.4484 12.3002 10.2385 12.5101 9.97961 12.5101Z" fill="#495059"/>
<path d="M19.2749 12.5101C19.016 12.5101 18.8062 12.3002 18.8062 12.0413V11.2698C18.8062 11.0109 19.016 10.8011 19.2749 10.8011C19.5338 10.8011 19.7437 11.0109 19.7437 11.2698V12.0413C19.7437 12.3002 19.5338 12.5101 19.2749 12.5101Z" fill="#495059"/>
<path d="M14.6272 13.1025C14.0221 13.1025 13.4466 12.8404 13.0485 12.3834C12.8784 12.1883 12.8987 11.8922 13.0939 11.7221C13.2891 11.552 13.5852 11.5724 13.7552 11.7676C13.9753 12.0202 14.2931 12.165 14.6272 12.165C14.9612 12.165 15.279 12.0202 15.4991 11.7676C15.6691 11.5724 15.9652 11.5521 16.1604 11.7221C16.3556 11.8922 16.3759 12.1883 16.2059 12.3834C15.8078 12.8404 15.2324 13.1025 14.6272 13.1025Z" fill="#495059"/>
<path d="M5.62588 14.0429C5.41588 14.0429 5.22469 13.9007 5.17144 13.6876C5.10869 13.4364 5.26138 13.182 5.51257 13.1192C6.11275 12.9693 7.54288 12.8624 8.23932 12.9543C8.49594 12.9883 8.6765 13.2238 8.64263 13.4804C8.60869 13.7371 8.37332 13.9174 8.1165 13.8838C7.54913 13.8089 6.23619 13.9047 5.73988 14.0287C5.70175 14.0383 5.6635 14.0429 5.62588 14.0429Z" fill="#495059"/>
<path d="M6.3217 16.6315C6.17795 16.6315 6.03613 16.5656 5.9442 16.4411C5.79045 16.2328 5.83463 15.9393 6.04295 15.7856C6.54057 15.4182 7.82207 14.7744 8.5012 14.5941C8.75151 14.5278 9.00813 14.6767 9.07457 14.9269C9.14101 15.1771 8.99201 15.4338 8.74182 15.5002C8.18845 15.6472 7.01126 16.236 6.59976 16.5398C6.51595 16.6016 6.41832 16.6315 6.3217 16.6315Z" fill="#495059"/>
<path d="M23.6287 14.0429C23.591 14.0429 23.5528 14.0383 23.5147 14.0288C23.0184 13.9048 21.7056 13.8089 21.1381 13.8838C20.8819 13.9174 20.6459 13.7372 20.6119 13.4805C20.5781 13.2238 20.7586 12.9883 21.0152 12.9544C21.7117 12.8623 23.1419 12.9693 23.742 13.1193C23.9932 13.1821 24.1459 13.4365 24.0831 13.6877C24.0298 13.9006 23.8386 14.0429 23.6287 14.0429Z" fill="#495059"/>
<path d="M22.9328 16.6315C22.8361 16.6315 22.7386 16.6016 22.6548 16.5398C22.2433 16.2361 21.0661 15.6472 20.5127 15.5002C20.2626 15.4338 20.1136 15.1771 20.18 14.9269C20.2464 14.6767 20.5029 14.5278 20.7534 14.5941C21.4325 14.7744 22.714 15.4182 23.2116 15.7856C23.4199 15.9393 23.4641 16.2328 23.3104 16.4411C23.2184 16.5656 23.0766 16.6315 22.9328 16.6315Z" fill="#495059"/>
<path d="M19.0324 29.716H13.7821C12.9335 29.716 12.2455 29.0281 12.2455 28.1795C12.2455 27.3309 12.9335 26.6429 13.7821 26.6429H19.0324C19.881 26.6429 20.5689 27.3309 20.5689 28.1795C20.5689 29.0281 19.881 29.716 19.0324 29.716Z" fill="#EDA751"/>
<path d="M14.4131 20.57C14.5772 20.5997 14.7391 20.6569 14.8926 20.7432C15.6323 21.1592 15.8946 22.0961 15.4785 22.8358C14.7741 24.0882 12.9931 24.9835 11.2439 24.9649C9.48395 24.9458 7.98551 24.02 7.13208 22.424C6.73189 21.6757 7.0142 20.7447 7.76252 20.3445C8.51077 19.9443 9.44189 20.2265 9.84208 20.9749C10.158 21.5657 10.5863 21.8565 11.1898 21.889C11.9666 21.9312 12.6696 21.5132 12.8036 21.3226C13.1346 20.7408 13.7889 20.4569 14.4131 20.57ZM12.8001 21.3291C12.8001 21.329 12.8002 21.3289 12.8003 21.3287C12.8003 21.3288 12.8001 21.329 12.8001 21.3291Z" fill="#EDA751"/>
<g clip-path="url(#clip1_17_94)">
<path d="M20.1749 16.9783L9.671 21.3786C8.98851 21.6645 8.65214 22.3141 8.91969 22.8296L12.0686 28.8962C12.3362 29.4116 13.1063 29.5977 13.7888 29.3118L24.2927 24.9116C24.9752 24.6257 25.3115 23.976 25.044 23.4605L21.8951 17.3939C21.6275 16.8785 20.8573 16.6924 20.1749 16.9783Z" fill="#2D4A60"/>
<path d="M16.9906 25.698L14.9825 26.5392C14.6547 26.6765 14.2894 26.7099 13.9668 26.6319C13.6442 26.554 13.3908 26.3711 13.2623 26.1236L12.0512 23.7903C11.9227 23.5427 11.9297 23.2508 12.0705 22.9787C12.2114 22.7066 12.4747 22.4766 12.8024 22.3393L14.8106 21.498C14.8511 21.481 14.8944 21.4702 14.938 21.4663C14.9816 21.4623 15.0245 21.4652 15.0645 21.4749C15.1044 21.4845 15.1405 21.5007 15.1707 21.5225C15.201 21.5443 15.2247 21.5713 15.2406 21.602L15.6039 22.302C15.636 22.3638 15.6343 22.4368 15.5991 22.5048C15.5639 22.5729 15.498 22.6304 15.4161 22.6647L13.7169 23.3765L14.6859 25.2432L16.385 24.5313C16.4669 24.497 16.5583 24.4887 16.6389 24.5082C16.7196 24.5277 16.7829 24.5734 16.815 24.6352L17.1784 25.3352C17.1943 25.3659 17.202 25.3996 17.2012 25.4344C17.2004 25.4692 17.191 25.5045 17.1735 25.5381C17.1561 25.5718 17.131 25.6033 17.0996 25.6307C17.0682 25.6581 17.0311 25.681 16.9906 25.698V25.698Z" fill="#EAEFF0"/>
<path d="M22.088 23.5626L20.0799 24.4038C19.7522 24.5411 19.3868 24.5744 19.0642 24.4965C18.7416 24.4185 18.4882 24.2357 18.3598 23.9881L17.1486 21.6548C17.0202 21.4073 17.0271 21.1154 17.168 20.8433C17.3089 20.5711 17.5722 20.3411 17.8999 20.2038L19.908 19.3626C19.9486 19.3456 19.9919 19.3348 20.0355 19.3308C20.079 19.3269 20.122 19.3298 20.162 19.3394C20.2019 19.3491 20.238 19.3653 20.2682 19.3871C20.2984 19.4089 20.3222 19.4359 20.3381 19.4665L20.7014 20.1665C20.7335 20.2284 20.7318 20.3014 20.6966 20.3694C20.6613 20.4374 20.5955 20.4949 20.5136 20.5293L18.8144 21.2411L19.7833 23.1077L21.4825 22.3959C21.5644 22.3616 21.6558 22.3533 21.7364 22.3727C21.817 22.3922 21.8804 22.4379 21.9125 22.4998L22.2759 23.1998C22.2918 23.2305 22.2995 23.2641 22.2987 23.299C22.2979 23.3338 22.2885 23.369 22.271 23.4027C22.2536 23.4364 22.2284 23.4679 22.1971 23.4953C22.1657 23.5227 22.1286 23.5456 22.088 23.5626V23.5626Z" fill="#EAEFF0"/>
<path d="M24.4138 25.1449L19.1619 27.345L13.9099 29.5452C13.5002 29.7164 13.0437 29.7578 12.6406 29.6604C12.2375 29.563 11.9207 29.3347 11.7597 29.0256L8.61075 22.959C8.45066 22.6495 8.45963 22.2847 8.63568 21.9447C8.81174 21.6046 9.14051 21.3171 9.54987 21.1452L20.0537 16.745C20.4635 16.5737 20.9199 16.5323 21.3231 16.6297C21.7262 16.7271 22.043 16.9554 22.204 17.2645L25.3529 23.3311C25.513 23.6406 25.504 24.0054 25.328 24.3454C25.1519 24.6855 24.8231 24.973 24.4138 25.1449ZM9.79209 21.6119C9.54648 21.715 9.34922 21.8875 9.24359 22.0916C9.13795 22.2956 9.13257 22.5144 9.22861 22.7001L12.3775 28.7668C12.4742 28.9522 12.6642 29.0892 12.9061 29.1476C13.148 29.2061 13.4219 29.1812 13.6677 29.0785L24.1716 24.6782C24.4172 24.5751 24.6144 24.4026 24.7201 24.1986C24.8257 23.9945 24.8311 23.7757 24.735 23.59L21.5861 17.5233C21.4895 17.3379 21.2994 17.2009 21.0576 17.1425C20.8157 17.084 20.5418 17.1089 20.296 17.2116L9.79209 21.6119Z" fill="black"/>
<path d="M17.1117 25.9313L15.1036 26.7726C14.6939 26.9438 14.2374 26.9852 13.8343 26.8878C13.4312 26.7904 13.1144 26.5621 12.9533 26.253L11.7422 23.9197C11.5821 23.6102 11.5911 23.2454 11.7672 22.9054C11.9432 22.5654 12.272 22.2778 12.6813 22.1059L14.6894 21.2647C14.8533 21.1962 15.0359 21.1796 15.1972 21.2186C15.3584 21.2576 15.4851 21.3489 15.5495 21.4725L15.9129 22.1725C15.9769 22.2963 15.9733 22.4422 15.9029 22.5783C15.8325 22.7143 15.701 22.8293 15.5372 22.898L14.147 23.4804L14.8737 24.8804L16.2639 24.298C16.4278 24.2295 16.6104 24.2129 16.7716 24.2519C16.9329 24.2909 17.0596 24.3822 17.124 24.5058L17.4873 25.2058C17.5514 25.3296 17.5478 25.4755 17.4774 25.6116C17.4069 25.7476 17.2754 25.8626 17.1117 25.9313ZM12.9236 22.5726C12.678 22.6758 12.4807 22.8483 12.3751 23.0523C12.2694 23.2563 12.264 23.4752 12.3601 23.6609L13.5712 25.9942C13.6678 26.1796 13.8579 26.3166 14.0998 26.375C14.3416 26.4335 14.6155 26.4086 14.8614 26.3059L16.8698 25.4645L16.5061 24.7647L14.807 25.4765C14.725 25.5108 14.6337 25.5191 14.553 25.4996C14.4724 25.4802 14.409 25.4345 14.3769 25.3726L13.408 23.5059C13.3921 23.4753 13.3843 23.4416 13.3852 23.4068C13.386 23.372 13.3954 23.3367 13.4129 23.303C13.4303 23.2693 13.4554 23.2379 13.4868 23.2105C13.5182 23.183 13.5553 23.1602 13.5959 23.1432L15.295 22.4314L14.9317 21.7314L12.9236 22.5726Z" fill="black"/>
<path d="M22.2091 23.7959L20.2011 24.6371C19.7913 24.8084 19.3349 24.8498 18.9317 24.7524C18.5286 24.655 18.2118 24.4267 18.0508 24.1176L16.8397 21.7843C16.6796 21.4748 16.6886 21.11 16.8646 20.77C17.0407 20.4299 17.3695 20.1424 17.7788 19.9705L19.7869 19.1293C19.9508 19.0608 20.1334 19.0442 20.2946 19.0832C20.4559 19.1221 20.5826 19.2135 20.647 19.3371L21.0104 20.0371C21.0744 20.1609 21.0708 20.3068 21.0004 20.4428C20.9299 20.5788 20.7984 20.6938 20.6347 20.7626L19.2445 21.345L19.9711 22.745L21.3614 22.1626C21.5252 22.0941 21.7078 22.0775 21.8691 22.1165C22.0303 22.1554 22.1571 22.2468 22.2215 22.3704L22.5848 23.0704C22.6488 23.1942 22.6453 23.3401 22.5748 23.4761C22.5044 23.6121 22.3729 23.7272 22.2091 23.7959V23.7959ZM18.021 20.4372C17.7754 20.5403 17.5782 20.7128 17.4725 20.9168C17.3669 21.1209 17.3615 21.3397 17.4576 21.5254L18.6687 23.8587C18.7653 24.0442 18.9554 24.1812 19.1972 24.2396C19.4391 24.2981 19.713 24.2732 19.9588 24.1705L21.9673 23.3291L21.6036 22.6292L19.9044 23.341C19.8225 23.3754 19.7312 23.3837 19.6505 23.3642C19.5699 23.3447 19.5065 23.299 19.4744 23.2372L18.5055 21.3705C18.4896 21.3398 18.4818 21.3062 18.4827 21.2713C18.4835 21.2365 18.4929 21.2013 18.5103 21.1676C18.5278 21.1339 18.5529 21.1025 18.5843 21.075C18.6157 21.0476 18.6528 21.0247 18.6933 21.0078L20.3925 20.296L20.0291 19.596L18.021 20.4372Z" fill="black"/>
</g>
<path d="M22.9475 20.5772C23.9777 20.5772 24.8129 19.742 24.8129 18.7118C24.8129 17.6816 23.9777 16.8464 22.9475 16.8464C21.9173 16.8464 21.0822 17.6816 21.0822 18.7118C21.0822 19.742 21.9173 20.5772 22.9475 20.5772Z" fill="#EDA751"/>
</g>
<defs>
<clipPath id="clip0_17_94">
<rect width="32" height="32" fill="white"/>
</clipPath>
<clipPath id="clip1_17_94">
<rect width="16.0776" height="12.6188" fill="white" transform="matrix(0.922338 -0.386384 0.460694 0.887559 6.66064 20.6512)"/>
</clipPath>
</defs>
</svg>
