<svg width="48" height="48" viewBox="0 0 48 48" fill="none" xmlns="http://www.w3.org/2000/svg">
<g clip-path="url(#clip0_17_94)">
<path d="M36.1934 44.5741H28.3181C27.0452 44.5741 26.0133 43.5422 26.0133 42.2693C26.0133 40.9963 27.0452 39.9644 28.3181 39.9644H36.1934C37.4664 39.9644 38.4983 40.9963 38.4983 42.2693C38.4983 43.5422 37.4664 44.5741 36.1934 44.5741Z" fill="#EDA751"/>
<path opacity="0.2" d="M36.1934 44.5741H28.3181C27.0452 44.5741 26.0133 43.5422 26.0133 42.2693C26.0133 40.9963 27.0452 39.9644 28.3181 39.9644H36.1934C37.4664 39.9644 38.4983 40.9963 38.4983 42.2693C38.4983 43.5422 37.4664 44.5741 36.1934 44.5741Z" fill="#A35F00"/>
<path d="M8.75939 43.8588C7.67864 43.8588 6.76721 43.4991 6.07139 43.0791C3.89452 41.7647 3.38846 39.6243 2.94202 37.7358C2.48049 35.7836 2.12714 34.5476 0.735988 33.7675C0.04205 33.3785 -0.204981 32.5004 0.184175 31.8065C0.573144 31.1126 1.45083 30.8651 2.14524 31.2547C4.71043 32.6931 5.28446 35.1217 5.7458 37.073C6.16364 38.8404 6.47499 39.9571 7.56052 40.6125C8.2343 41.0192 9.11977 41.2985 10.5793 40.2863C11.8075 39.4343 12.958 38.0151 13.9731 36.7627C14.0921 36.616 14.2084 36.4725 14.3221 36.3333C14.8258 35.7171 15.7333 35.6259 16.3491 36.129C16.9652 36.6324 17.0566 37.5399 16.5534 38.156C16.4418 38.2925 16.3278 38.4332 16.2113 38.577C15.1312 39.9094 13.787 41.5676 12.2214 42.6535C10.9433 43.5403 9.77639 43.8588 8.75939 43.8588Z" fill="#EDA751"/>
<path opacity="0.2" d="M16.3494 36.1291C15.7335 35.626 14.826 35.7172 14.3224 36.3334C14.2088 36.4726 14.0923 36.6161 13.9734 36.7628C12.9582 38.0152 11.8077 39.4344 10.5795 40.2863C10.3433 40.4502 10.1222 40.5798 9.91455 40.6808C10.4358 41.5053 11.061 42.265 11.7734 42.944C11.9213 42.8546 12.0706 42.7584 12.2216 42.6537C13.7873 41.5678 15.1315 39.9096 16.2116 38.5772C16.3282 38.4334 16.4422 38.2927 16.5536 38.1562C17.0569 37.54 16.9655 36.6325 16.3494 36.1291Z" fill="#C18F00"/>
<path d="M2.14566 31.2547C1.45126 30.8651 0.573571 31.1126 0.184602 31.8065C-0.204554 32.5004 0.0424772 33.3785 0.736415 33.7675C1.06679 33.9528 1.3381 34.1642 1.56676 34.4044C2.2126 33.982 2.94348 33.2334 3.33863 32.1117C2.99691 31.8002 2.60354 31.5114 2.14566 31.2547Z" fill="#FCD79D"/>
<path d="M20.6728 44.5743C26.5443 44.5743 31.3041 40.1516 31.3041 34.6958C31.3041 29.2401 26.5443 24.8174 20.6728 24.8174C14.8013 24.8174 10.0416 29.2401 10.0416 34.6958C10.0416 40.1516 14.8013 44.5743 20.6728 44.5743Z" fill="#FCD690"/>
<path opacity="0.1" d="M19.1208 44.4689C14.2628 41.2794 15.7684 34.7424 16.593 31.8837V25.5715C12.7468 27.0584 10.0423 30.5833 10.0423 34.6957C10.0423 39.6613 13.9854 43.7707 19.1208 44.4689Z" fill="#C18F00"/>
<path d="M14.2036 17.5665C16.2838 15.821 17.6727 12.8907 14.7385 8.55909C11.7812 4.19325 7.37821 3.09881 3.94068 3.50381C3.09318 3.60366 2.38218 4.20028 2.13665 5.01759C1.14093 8.3325 1.45405 12.8587 5.24005 16.5292C8.99652 20.171 12.1234 19.312 14.2036 17.5665Z" fill="#EDA751"/>
<path d="M1.99835 5.52478C1.18207 8.78409 1.6436 13.0423 5.24013 16.5292C8.49597 19.6857 11.2784 19.4602 13.3168 18.2077C11.9149 8.69081 5.79091 6.16706 1.99835 5.52478Z" fill="#FF91AB"/>
<path d="M27.1427 17.5665C25.0625 15.821 23.6736 12.8907 26.6077 8.55909C29.5651 4.19325 33.9682 3.09881 37.4056 3.50381C38.2531 3.60366 38.9641 4.20028 39.2096 5.01759C40.2053 8.3325 39.8921 12.8587 36.1062 16.5292C32.3498 20.171 29.2229 19.312 27.1427 17.5665Z" fill="#EDA751"/>
<path d="M39.3479 5.52478C40.1642 8.78409 39.7027 13.0423 36.1061 16.5292C32.8503 19.6857 30.0679 19.4602 28.0295 18.2077C29.4314 8.69081 35.5554 6.16706 39.3479 5.52478Z" fill="#FF91AB"/>
<path d="M38.7721 20.2011C38.7721 28.4764 30.6689 32.1008 20.6732 32.1008C10.6775 32.1008 2.5744 28.4764 2.5744 20.2011C2.5744 11.9258 10.6776 5.21728 20.6732 5.21728C30.6689 5.21728 38.7721 11.9258 38.7721 20.2011Z" fill="#FCD690"/>
<path opacity="0.1" d="M11.0092 7.53065C5.94047 10.186 2.57428 14.8678 2.57428 20.201C2.57428 27.3147 8.56228 30.9916 16.593 31.8836C5.06512 24.9978 6.56859 15.7356 11.0092 7.53065Z" fill="#C18F00"/>
<path d="M13.0594 23.2748C14.8692 23.2748 16.3364 22.1065 16.3364 20.6652C16.3364 19.224 14.8692 18.0556 13.0594 18.0556C11.2495 18.0556 9.78235 19.224 9.78235 20.6652C9.78235 22.1065 11.2495 23.2748 13.0594 23.2748Z" fill="#FF91AB"/>
<path d="M30.8222 23.2748C32.6321 23.2748 34.0992 22.1065 34.0992 20.6652C34.0992 19.224 32.6321 18.0556 30.8222 18.0556C29.0123 18.0556 27.5452 19.224 27.5452 20.6652C27.5452 22.1065 29.0123 23.2748 30.8222 23.2748Z" fill="#FF91AB"/>
<path d="M14.9694 18.7651C14.581 18.7651 14.2663 18.4504 14.2663 18.062V16.9047C14.2663 16.5163 14.581 16.2016 14.9694 16.2016C15.3578 16.2016 15.6725 16.5163 15.6725 16.9047V18.062C15.6725 18.4504 15.3577 18.7651 14.9694 18.7651Z" fill="#495059"/>
<path d="M28.9123 18.7651C28.5239 18.7651 28.2092 18.4504 28.2092 18.062V16.9047C28.2092 16.5163 28.5239 16.2016 28.9123 16.2016C29.3006 16.2016 29.6154 16.5163 29.6154 16.9047V18.062C29.6154 18.4504 29.3006 18.7651 28.9123 18.7651Z" fill="#495059"/>
<path d="M21.9409 19.6538C21.0331 19.6538 20.1699 19.2607 19.5727 18.5752C19.3175 18.2824 19.3481 17.8383 19.6409 17.5832C19.9336 17.328 20.3778 17.3586 20.6329 17.6514C20.963 18.0303 21.4397 18.2475 21.9408 18.2475C22.4419 18.2475 22.9185 18.0303 23.2486 17.6514C23.5037 17.3586 23.9478 17.3281 24.2405 17.5832C24.5333 17.8383 24.5639 18.2824 24.3088 18.5752C23.7117 19.2606 22.8486 19.6538 21.9409 19.6538Z" fill="#495059"/>
<path d="M8.43882 21.0643C8.12382 21.0643 7.83704 20.851 7.75716 20.5314C7.66304 20.1547 7.89207 19.773 8.26885 19.6788C9.16913 19.4539 11.3143 19.2936 12.359 19.4315C12.7439 19.4824 13.0148 19.8356 12.9639 20.2207C12.913 20.6056 12.56 20.8762 12.1748 20.8256C11.3237 20.7133 9.35429 20.857 8.60982 21.043C8.55263 21.0574 8.49526 21.0643 8.43882 21.0643Z" fill="#495059"/>
<path d="M9.48254 24.9472C9.26692 24.9472 9.0542 24.8483 8.91629 24.6616C8.68567 24.3492 8.75195 23.909 9.06442 23.6783C9.81086 23.1273 11.7331 22.1617 12.7518 21.8912C13.1273 21.7917 13.5122 22.015 13.6119 22.3903C13.7115 22.7657 13.488 23.1507 13.1127 23.2504C12.2827 23.4708 10.5169 24.354 9.89964 24.8097C9.77392 24.9024 9.62748 24.9472 9.48254 24.9472Z" fill="#495059"/>
<path d="M35.4431 21.0643C35.3865 21.0643 35.3292 21.0575 35.2721 21.0431C34.5277 20.8571 32.5585 20.7134 31.7071 20.8257C31.3228 20.8762 30.9688 20.6058 30.9179 20.2208C30.8671 19.8357 31.138 19.4825 31.5229 19.4316C32.5676 19.2935 34.7129 19.454 35.613 19.6789C35.9898 19.7731 36.2188 20.1548 36.1247 20.5315C36.0447 20.8509 35.758 21.0643 35.4431 21.0643Z" fill="#495059"/>
<path d="M34.3992 24.9472C34.2541 24.9472 34.1078 24.9024 33.9822 24.8097C33.365 24.3541 31.5991 23.4708 30.7691 23.2504C30.3938 23.1507 30.1703 22.7657 30.27 22.3903C30.3697 22.015 30.7543 21.7917 31.1301 21.8912C32.1487 22.1617 34.071 23.1273 34.8174 23.6783C35.1299 23.909 35.1962 24.3492 34.9656 24.6616C34.8276 24.8483 34.6148 24.9472 34.3992 24.9472Z" fill="#495059"/>
<path d="M28.5486 44.5741H20.6732C19.4003 44.5741 18.3683 43.5422 18.3683 42.2692C18.3683 40.9963 19.4003 39.9644 20.6732 39.9644H28.5486C29.8215 39.9644 30.8534 40.9963 30.8534 42.2692C30.8534 43.5422 29.8215 44.5741 28.5486 44.5741Z" fill="#EDA751"/>
<path d="M21.6198 30.855C21.8659 30.8995 22.1088 30.9853 22.339 31.1148C23.4486 31.7388 23.8419 33.1442 23.2178 34.2537C22.1612 36.1322 19.4898 37.4753 16.8659 37.4473C14.226 37.4187 11.9783 36.03 10.6982 33.6361C10.0979 32.5135 10.5214 31.117 11.6438 30.5167C12.7662 29.9164 14.1629 30.3398 14.7632 31.4624C15.2371 32.3486 15.8796 32.7848 16.7848 32.8335C17.95 32.8968 19.0045 32.2698 19.2055 31.9839C19.7019 31.1112 20.6834 30.6854 21.6198 30.855ZM19.2002 31.9937C19.2003 31.9935 19.2004 31.9933 19.2006 31.993C19.2005 31.9932 19.2003 31.9935 19.2002 31.9937Z" fill="#EDA751"/>
<g clip-path="url(#clip1_17_94)">
<path d="M30.2623 25.4674L14.5065 32.0678C13.4828 32.4967 12.9782 33.4712 13.3796 34.2444L18.1029 43.3443C18.5043 44.1175 19.6595 44.3966 20.6833 43.9677L36.4391 37.3673C37.4628 36.9385 37.9673 35.964 37.566 35.1908L32.8426 26.0909C32.4413 25.3177 31.2861 25.0386 30.2623 25.4674Z" fill="#2D4A60"/>
<path d="M25.4859 38.547L22.4737 39.8088C21.9821 40.0148 21.4341 40.0648 20.9502 39.9479C20.4663 39.8309 20.0862 39.5566 19.8935 39.1854L18.0768 35.6854C17.8841 35.3141 17.8945 34.8762 18.1058 34.468C18.3172 34.0599 18.7121 33.7149 19.2037 33.5089L22.2159 32.247C22.2767 32.2216 22.3417 32.2054 22.407 32.1994C22.4724 32.1934 22.5368 32.1978 22.5967 32.2123C22.6566 32.2268 22.7108 32.2511 22.7561 32.2838C22.8015 32.3165 22.8371 32.357 22.8609 32.4029L23.4059 33.4529C23.4541 33.5457 23.4515 33.6552 23.3987 33.7573C23.3458 33.8593 23.2471 33.9455 23.1242 33.997L20.5755 35.0647L22.0288 37.8647L24.5776 36.797C24.7005 36.7455 24.8375 36.733 24.9584 36.7623C25.0794 36.7915 25.1744 36.8601 25.2226 36.9529L25.7676 38.0029C25.7915 38.0488 25.8031 38.0994 25.8019 38.1516C25.8006 38.2038 25.7865 38.2567 25.7604 38.3072C25.7342 38.3577 25.6965 38.4049 25.6494 38.4461C25.6023 38.4872 25.5468 38.5215 25.4859 38.547V38.547Z" fill="#EAEFF0"/>
<path d="M33.1321 35.3439L30.1199 36.6057C29.6283 36.8116 29.0803 36.8616 28.5964 36.7447C28.1125 36.6278 27.7324 36.3535 27.5396 35.9822L25.723 32.4823C25.5302 32.111 25.5407 31.6731 25.752 31.2649C25.9634 30.8567 26.3583 30.5117 26.8499 30.3058L29.862 29.0439C29.9229 29.0184 29.9879 29.0022 30.0532 28.9963C30.1186 28.9903 30.183 28.9947 30.2429 29.0092C30.3028 29.0236 30.357 29.0479 30.4023 29.0806C30.4476 29.1133 30.4832 29.1538 30.5071 29.1998L31.0521 30.2498C31.1003 30.3426 31.0977 30.4521 31.0448 30.5541C30.992 30.6562 30.8933 30.7424 30.7704 30.7939L28.2216 31.8616L29.675 34.6616L32.2237 33.5939C32.3466 33.5424 32.4836 33.5299 32.6046 33.5591C32.7256 33.5884 32.8206 33.6569 32.8688 33.7497L33.4138 34.7997C33.4376 34.8457 33.4493 34.8962 33.448 34.9484C33.4468 35.0007 33.4327 35.0535 33.4065 35.1041C33.3804 35.1546 33.3427 35.2018 33.2956 35.2429C33.2485 35.2841 33.1929 35.3184 33.1321 35.3439V35.3439Z" fill="#EAEFF0"/>
<path d="M36.6207 37.7173L28.7427 41.0175L20.8648 44.3177C20.2503 44.5746 19.5655 44.6367 18.9609 44.4906C18.3562 44.3445 17.881 44.0021 17.6395 43.5384L12.9161 34.4385C12.676 33.9742 12.6894 33.427 12.9535 32.917C13.2176 32.407 13.7107 31.9757 14.3248 31.7178L30.0806 25.1174C30.6952 24.8606 31.3799 24.7984 31.9846 24.9445C32.5892 25.0906 33.0644 25.4331 33.3059 25.8968L38.0293 34.9967C38.2695 35.461 38.256 36.0081 37.9919 36.5182C37.7278 37.0282 37.2347 37.4595 36.6207 37.7173ZM14.6881 32.4178C14.3197 32.5725 14.0238 32.8313 13.8653 33.1373C13.7069 33.4434 13.6988 33.7716 13.8429 34.0502L18.5663 43.1501C18.7112 43.4283 18.9963 43.6338 19.3591 43.7215C19.7219 43.8091 20.1328 43.7718 20.5015 43.6177L36.2573 37.0173C36.6257 36.8626 36.9216 36.6039 37.0801 36.2978C37.2385 35.9918 37.2466 35.6635 37.1025 35.385L32.3791 26.285C32.2342 26.0068 31.9491 25.8014 31.5863 25.7137C31.2235 25.626 30.8127 25.6633 30.4439 25.8174L14.6881 32.4178Z" fill="black"/>
<path d="M25.6675 38.897L22.6554 40.1589C22.0408 40.4157 21.356 40.4778 20.7514 40.3317C20.1467 40.1856 19.6715 39.8432 19.43 39.3795L17.6133 35.8795C17.3732 35.4153 17.3866 34.8681 17.6507 34.3581C17.9148 33.848 18.4079 33.4168 19.022 33.1589L22.0341 31.8971C22.2799 31.7943 22.5538 31.7695 22.7957 31.8279C23.0376 31.8863 23.2277 32.0233 23.3243 32.2088L23.8693 33.2588C23.9653 33.4445 23.96 33.6634 23.8543 33.8674C23.7487 34.0714 23.5514 34.2439 23.3058 34.347L21.2205 35.2206L22.3105 37.3206L24.3958 36.447C24.6416 36.3443 24.9155 36.3194 25.1574 36.3778C25.3993 36.4363 25.5894 36.5733 25.686 36.7587L26.231 37.8087C26.327 37.9944 26.3216 38.2133 26.216 38.4173C26.1104 38.6214 25.9131 38.7939 25.6675 38.897ZM19.3853 33.8589C19.0169 34.0136 18.721 34.2724 18.5626 34.5784C18.4041 34.8844 18.396 35.2127 18.5401 35.4913L20.3568 38.9912C20.5017 39.2694 20.7868 39.4749 21.1496 39.5626C21.5124 39.6502 21.9233 39.6129 22.292 39.4588L25.3047 38.1967L24.7591 37.147L22.2104 38.2147C22.0875 38.2662 21.9505 38.2787 21.8295 38.2495C21.7086 38.2203 21.6135 38.1517 21.5653 38.0589L20.112 35.2589C20.0881 35.2129 20.0765 35.1624 20.0777 35.1102C20.079 35.0579 20.0931 35.0051 20.1193 34.9545C20.1454 34.904 20.1831 34.8568 20.2302 34.8157C20.2773 34.7745 20.3329 34.7403 20.3937 34.7148L22.9425 33.6471L22.3974 32.5971L19.3853 33.8589Z" fill="black"/>
<path d="M33.3137 35.6939L30.3016 36.9557C29.687 37.2125 29.0023 37.2747 28.3976 37.1286C27.793 36.9825 27.3177 36.64 27.0762 36.1764L25.2596 32.6764C25.0194 32.2122 25.0329 31.665 25.297 31.1549C25.561 30.6449 26.0542 30.2136 26.6682 29.9558L29.6803 28.6939C29.9262 28.5912 30.2001 28.5663 30.442 28.6248C30.6838 28.6832 30.8739 28.8202 30.9705 29.0057L31.5155 30.0557C31.6116 30.2414 31.6062 30.4602 31.5006 30.6643C31.3949 30.8683 31.1976 31.0408 30.952 31.1439L28.8667 32.0175L29.9567 34.1175L32.042 33.2439C32.2879 33.1412 32.5618 33.1163 32.8036 33.1747C33.0455 33.2331 33.2356 33.3701 33.3322 33.5556L33.8772 34.6056C33.9733 34.7913 33.9679 35.0102 33.8622 35.2142C33.7566 35.4182 33.5593 35.5907 33.3137 35.6939V35.6939ZM27.0316 30.6558C26.6631 30.8105 26.3672 31.0692 26.2088 31.3753C26.0503 31.6813 26.0423 32.0096 26.1863 32.2882L28.003 35.7881C28.1479 36.0663 28.4331 36.2718 28.7959 36.3594C29.1587 36.4471 29.5695 36.4098 29.9382 36.2557L32.951 34.9936L32.4054 33.9439L29.8567 35.0116C29.7338 35.0631 29.5968 35.0756 29.4758 35.0463C29.3548 35.0171 29.2598 34.9486 29.2116 34.8557L27.7582 32.0557C27.7344 32.0098 27.7227 31.9592 27.724 31.907C27.7252 31.8548 27.7393 31.8019 27.7655 31.7514C27.7917 31.7009 27.8294 31.6537 27.8765 31.6125C27.9236 31.5714 27.9791 31.5371 28.04 31.5116L30.5887 30.4439L30.0437 29.3939L27.0316 30.6558Z" fill="black"/>
</g>
<path d="M34.4212 30.8658C35.9666 30.8658 37.2193 29.613 37.2193 28.0677C37.2193 26.5224 35.9666 25.2697 34.4212 25.2697C32.8759 25.2697 31.6232 26.5224 31.6232 28.0677C31.6232 29.613 32.8759 30.8658 34.4212 30.8658Z" fill="#EDA751"/>
</g>
<defs>
<clipPath id="clip0_17_94">
<rect width="48" height="48" fill="white"/>
</clipPath>
<clipPath id="clip1_17_94">
<rect width="24.1164" height="18.9282" fill="white" transform="matrix(0.922338 -0.386384 0.460694 0.887559 9.99097 30.9768)"/>
</clipPath>
</defs>
</svg>
