<svg width="128" height="128" viewBox="0 0 128 128" fill="none" xmlns="http://www.w3.org/2000/svg">
<g clip-path="url(#clip0_17_94)">
<path d="M96.5158 118.864H75.515C72.1205 118.864 69.3688 116.113 69.3688 112.718C69.3688 109.324 72.1205 106.572 75.515 106.572H96.5158C99.9103 106.572 102.662 109.324 102.662 112.718C102.662 116.113 99.9103 118.864 96.5158 118.864Z" fill="#EDA751"/>
<path opacity="0.2" d="M96.5158 118.864H75.515C72.1205 118.864 69.3688 116.113 69.3688 112.718C69.3688 109.324 72.1205 106.572 75.515 106.572H96.5158C99.9103 106.572 102.662 109.324 102.662 112.718C102.662 116.113 99.9103 118.864 96.5158 118.864Z" fill="#A35F00"/>
<path d="M23.3583 116.957C20.4763 116.957 18.0458 115.998 16.1903 114.878C10.3853 111.373 9.03582 105.665 7.84532 100.629C6.61457 95.423 5.67232 92.127 1.96257 90.0468C0.112072 89.0093 -0.546678 86.6678 0.491072 84.8173C1.52832 82.967 3.86882 82.307 5.72057 83.3457C12.5611 87.1815 14.0918 93.6578 15.3221 98.8613C16.4363 103.575 17.2666 106.552 20.1613 108.3C21.9581 109.385 24.3193 110.129 28.2113 107.43C31.4866 105.158 34.5546 101.373 37.2616 98.034C37.5788 97.6427 37.8891 97.26 38.1923 96.8887C39.5353 95.2455 41.9553 95.0025 43.5976 96.344C45.2406 97.6865 45.4843 100.107 44.1423 101.749C43.8448 102.113 43.5408 102.489 43.2301 102.872C40.3498 106.425 36.7653 110.847 32.5903 113.743C29.1821 116.108 26.0703 116.957 23.3583 116.957Z" fill="#EDA751"/>
<path opacity="0.2" d="M43.5982 96.3443C41.956 95.0028 39.536 95.2457 38.193 96.889C37.89 97.2602 37.5795 97.643 37.2622 98.0342C34.5552 101.374 31.4872 105.159 28.212 107.43C27.582 107.867 26.9925 108.213 26.4387 108.482C27.8287 110.681 29.496 112.707 31.3957 114.517C31.79 114.279 32.1882 114.022 32.591 113.743C36.766 110.847 40.3505 106.425 43.2307 102.872C43.5417 102.489 43.8457 102.114 44.143 101.75C45.485 100.107 45.2412 97.6868 43.5982 96.3443Z" fill="#C18F00"/>
<path d="M5.72173 83.3457C3.86998 82.307 1.52948 82.967 0.492232 84.8173C-0.545518 86.6678 0.113232 89.0093 1.96373 90.0468C2.84473 90.5408 3.56823 91.1045 4.17798 91.745C5.90023 90.6188 7.84923 88.6225 8.90298 85.6312C7.99173 84.8005 6.94273 84.0305 5.72173 83.3457Z" fill="#FCD79D"/>
<path d="M55.1275 118.865C70.7848 118.865 83.4775 107.071 83.4775 92.5223C83.4775 77.9737 70.7848 66.1797 55.1275 66.1797C39.4703 66.1797 26.7775 77.9737 26.7775 92.5223C26.7775 107.071 39.4703 118.865 55.1275 118.865Z" fill="#FCD690"/>
<path opacity="0.1" d="M50.9887 118.584C38.0342 110.078 42.049 92.6465 44.248 85.0232V68.1908C33.9915 72.1557 26.7795 81.5555 26.7795 92.5217C26.7795 105.763 37.2945 116.722 50.9887 118.584Z" fill="#C18F00"/>
<path d="M37.8762 46.844C43.4235 42.1893 47.1272 34.3752 39.3027 22.8242C31.4165 11.182 19.6752 8.2635 10.5085 9.3435C8.24849 9.60975 6.35249 11.2007 5.69774 13.3802C3.04249 22.22 3.87749 34.2898 13.9735 44.0778C23.9907 53.7893 32.329 51.4988 37.8762 46.844Z" fill="#EDA751"/>
<path d="M5.32901 14.7327C3.15226 23.4242 4.38301 34.7795 13.9738 44.0778C22.656 52.4953 30.0758 51.8937 35.5115 48.5537C31.7733 23.1755 15.4425 16.4455 5.32901 14.7327Z" fill="#FF91AB"/>
<path d="M72.3805 46.844C66.8332 42.1893 63.1295 34.3752 70.954 22.8242C78.8402 11.182 90.5817 8.2635 99.7482 9.3435C102.008 9.60975 103.904 11.2007 104.559 13.3802C107.214 22.22 106.379 34.2898 96.2832 44.0778C86.2662 53.7893 77.9277 51.4988 72.3805 46.844Z" fill="#EDA751"/>
<path d="M104.928 14.7327C107.104 23.4242 105.874 34.7795 96.283 44.0778C87.6007 52.4953 80.181 51.8937 74.7452 48.5537C78.4837 23.1755 94.8145 16.4455 104.928 14.7327Z" fill="#FF91AB"/>
<path d="M103.392 53.8695C103.392 75.937 81.7837 85.6022 55.1285 85.6022C28.4732 85.6022 6.86499 75.937 6.86499 53.8695C6.86499 31.802 28.4735 13.9128 55.1285 13.9128C81.7837 13.9128 103.392 31.802 103.392 53.8695Z" fill="#FCD690"/>
<path opacity="0.1" d="M29.358 20.0818C15.8412 27.1628 6.86475 39.6475 6.86475 53.8692C6.86475 72.8392 22.8327 82.6443 44.248 85.023C13.507 66.6608 17.5162 41.9615 29.358 20.0818Z" fill="#C18F00"/>
<path d="M34.825 62.0662C39.6513 62.0662 43.5637 58.9506 43.5637 55.1073C43.5637 51.2639 39.6513 48.1483 34.825 48.1483C29.9987 48.1483 26.0862 51.2639 26.0862 55.1073C26.0862 58.9506 29.9987 62.0662 34.825 62.0662Z" fill="#FF91AB"/>
<path d="M82.1925 62.0662C87.0188 62.0662 90.9312 58.9506 90.9312 55.1072C90.9312 51.2639 87.0188 48.1482 82.1925 48.1482C77.3662 48.1482 73.4537 51.2639 73.4537 55.1072C73.4537 58.9506 77.3662 62.0662 82.1925 62.0662Z" fill="#FF91AB"/>
<path d="M39.9185 50.0402C38.8828 50.0402 38.0435 49.201 38.0435 48.1652V45.0792C38.0435 44.0435 38.8828 43.2042 39.9185 43.2042C40.9543 43.2042 41.7935 44.0435 41.7935 45.0792V48.1652C41.7935 49.201 40.954 50.0402 39.9185 50.0402Z" fill="#495059"/>
<path d="M77.0995 50.0402C76.0637 50.0402 75.2245 49.201 75.2245 48.1652V45.0792C75.2245 44.0435 76.0637 43.2042 77.0995 43.2042C78.135 43.2042 78.9745 44.0435 78.9745 45.0792V48.1652C78.9745 49.201 78.135 50.0402 77.0995 50.0402Z" fill="#495059"/>
<path d="M58.509 52.41C56.0883 52.41 53.7865 51.3617 52.194 49.5337C51.5135 48.753 51.595 47.5688 52.3758 46.8885C53.1563 46.208 54.3408 46.2895 55.021 47.0705C55.9013 48.0808 57.1725 48.66 58.5088 48.66C59.845 48.66 61.116 48.0808 61.9963 47.0705C62.6765 46.2895 63.8608 46.2083 64.6415 46.8885C65.4223 47.5688 65.5038 48.753 64.8235 49.5337C63.2313 51.3615 60.9298 52.41 58.509 52.41Z" fill="#495059"/>
<path d="M22.5035 56.1715C21.6635 56.1715 20.8988 55.6027 20.6858 54.7505C20.4348 53.7457 21.0455 52.728 22.0503 52.4767C24.451 51.877 30.1715 51.4495 32.9573 51.8172C33.9838 51.953 34.706 52.895 34.5705 53.9217C34.4348 54.9482 33.4933 55.6697 32.466 55.535C30.1965 55.2355 24.9448 55.6187 22.9595 56.1147C22.807 56.153 22.654 56.1715 22.5035 56.1715Z" fill="#495059"/>
<path d="M25.2868 66.526C24.7118 66.526 24.1445 66.2623 23.7768 65.7643C23.1618 64.9313 23.3385 63.7572 24.1718 63.1422C26.1623 61.6727 31.2883 59.0977 34.0048 58.3765C35.006 58.1112 36.0325 58.7067 36.2983 59.7075C36.564 60.7085 35.968 61.7352 34.9673 62.001C32.7538 62.5887 28.045 64.944 26.399 66.1592C26.0638 66.4065 25.6733 66.526 25.2868 66.526Z" fill="#495059"/>
<path d="M94.5147 56.1715C94.364 56.1715 94.2112 56.1533 94.0587 56.115C92.0737 55.619 86.8225 55.2358 84.5522 55.5353C83.5275 55.6698 82.5835 54.9488 82.4477 53.922C82.3122 52.8953 83.0345 51.9533 84.061 51.8175C86.8467 51.4493 92.5677 51.8773 94.968 52.477C95.9727 52.7283 96.5835 53.746 96.3325 54.7508C96.1192 55.6025 95.3545 56.1715 94.5147 56.1715Z" fill="#495059"/>
<path d="M91.7312 66.526C91.3442 66.526 90.9542 66.4065 90.6192 66.1592C88.9732 64.9442 84.2642 62.5887 82.051 62.001C81.0502 61.7352 80.4542 60.7085 80.72 59.7075C80.9857 58.7067 82.0115 58.1112 83.0135 58.3765C85.73 59.0977 90.856 61.6727 92.8465 63.1422C93.6797 63.7572 93.8565 64.9313 93.2415 65.7643C92.8735 66.2623 92.3062 66.526 91.7312 66.526Z" fill="#495059"/>
<path d="M76.1295 118.864H55.1285C51.734 118.864 48.9822 116.112 48.9822 112.718C48.9822 109.323 51.734 106.572 55.1285 106.572H76.1295C79.524 106.572 82.2757 109.323 82.2757 112.718C82.2757 116.112 79.524 118.864 76.1295 118.864Z" fill="#EDA751"/>
<path d="M57.6526 82.2799C58.3089 82.3987 58.9566 82.6274 59.5706 82.9729C62.5294 84.6369 63.5784 88.3844 61.9141 91.3432C59.0964 96.3527 51.9726 99.9342 44.9756 99.8594C37.9359 99.7832 31.9421 96.0799 28.5284 89.6962C26.9276 86.7027 28.0569 82.9787 31.0501 81.3779C34.0431 79.7772 37.7676 80.9062 39.3684 83.8997C40.6321 86.2629 42.3454 87.4262 44.7594 87.5559C47.8666 87.7249 50.6786 86.0529 51.2146 85.2904C52.5384 82.9632 55.1556 81.8277 57.6526 82.2799ZM51.2004 85.3164C51.2006 85.3159 51.2009 85.3154 51.2014 85.3147C51.2011 85.3152 51.2006 85.3159 51.2004 85.3164Z" fill="#EDA751"/>
<g clip-path="url(#clip1_17_94)">
<path d="M80.6994 67.9132L38.6839 85.5142C35.954 86.6578 34.6085 89.2564 35.6787 91.3183L48.2744 115.585C49.3446 117.647 52.4253 118.391 55.1552 117.247L97.1707 99.6463C99.9006 98.5026 101.246 95.9041 100.176 93.8422L87.5802 69.5758C86.51 67.5139 83.4293 66.7695 80.6994 67.9132Z" fill="#2D4A60"/>
<path d="M67.9622 102.792L59.9298 106.157C58.6188 106.706 57.1574 106.839 55.867 106.528C54.5766 106.216 53.563 105.484 53.0491 104.494L48.2046 95.1611C47.6907 94.171 47.7185 93.0032 48.2821 91.9148C48.8457 90.8263 49.8988 89.9063 51.2097 89.3571L59.2422 85.9921C59.4044 85.9241 59.5777 85.881 59.7519 85.8651C59.9262 85.8492 60.0981 85.8609 60.2578 85.8995C60.4176 85.9381 60.562 86.0028 60.6829 86.09C60.8037 86.1773 60.8987 86.2853 60.9623 86.4078L62.4156 89.2078C62.5441 89.4553 62.5371 89.7472 62.3963 90.0193C62.2554 90.2914 61.9921 90.5214 61.6644 90.6587L54.8677 93.506L58.7433 100.973L65.54 98.1254C65.8677 97.9881 66.2331 97.9548 66.5556 98.0327C66.8782 98.1106 67.1316 98.2935 67.2601 98.541L68.7135 101.341C68.7771 101.464 68.8081 101.598 68.8048 101.738C68.8015 101.877 68.7639 102.018 68.6941 102.153C68.6244 102.287 68.5238 102.413 68.3983 102.523C68.2727 102.633 68.1245 102.724 67.9622 102.792V102.792Z" fill="#EAEFF0"/>
<path d="M88.3521 94.2503L80.3197 97.6152C79.0087 98.1644 77.5473 98.2977 76.2569 97.9859C74.9665 97.6741 73.9529 96.9427 73.439 95.9526L68.5945 86.6194C68.0806 85.6293 68.1084 84.4615 68.672 83.3731C69.2356 82.2846 70.2887 81.3646 71.5996 80.8154L79.6321 77.4504C79.7943 77.3824 79.9676 77.3393 80.1418 77.3234C80.3161 77.3075 80.488 77.3192 80.6477 77.3578C80.8075 77.3964 80.9519 77.4611 81.0728 77.5483C81.1936 77.6356 81.2886 77.7436 81.3522 77.8661L82.8055 80.6661C82.934 80.9136 82.927 81.2055 82.7862 81.4776C82.6453 81.7497 82.382 81.9797 82.0543 82.117L75.2576 84.9643L79.1332 92.4309L85.9299 89.5837C86.2576 89.4464 86.623 89.4131 86.9455 89.491C87.2681 89.5689 87.5215 89.7518 87.65 89.9993L89.1033 92.7993C89.167 92.9218 89.198 93.0566 89.1947 93.1958C89.1914 93.3351 89.1538 93.4761 89.084 93.6108C89.0143 93.7456 88.9137 93.8714 88.7882 93.9811C88.6626 94.0908 88.5144 94.1823 88.3521 94.2503V94.2503Z" fill="#EAEFF0"/>
<path d="M97.6551 100.58L76.6473 109.38L55.6396 118.181C54.0007 118.865 52.1748 119.031 50.5623 118.642C48.9499 118.252 47.6827 117.339 47.0386 116.102L34.4429 91.8359C33.8026 90.5979 33.8384 89.1388 34.5427 87.7787C35.2469 86.4186 36.562 85.2685 38.1994 84.5809L80.2149 66.9798C81.8538 66.295 83.6797 66.1292 85.2922 66.5188C86.9046 66.9084 88.1718 67.8216 88.8159 69.058L101.412 93.3246C102.052 94.5626 102.016 96.0217 101.312 97.3818C100.608 98.7419 99.2925 99.8919 97.6551 100.58ZM39.1683 86.4475C38.1859 86.8601 37.3968 87.5501 36.9743 88.3662C36.5517 89.1823 36.5302 90.0577 36.9144 90.8005L49.5101 115.067C49.8965 115.809 50.6569 116.357 51.6244 116.591C52.5918 116.824 53.6874 116.725 54.6707 116.314L96.6862 98.7129C97.6687 98.3003 98.4577 97.6103 98.8802 96.7942C99.3028 95.9782 99.3243 95.1027 98.9401 94.3599L86.3444 70.0934C85.958 69.3515 85.1976 68.8036 84.2302 68.5698C83.2627 68.3361 82.1671 68.4356 81.1838 68.8464L39.1683 86.4475Z" fill="black"/>
<path d="M68.4466 103.725L60.4143 107.09C58.7754 107.775 56.9495 107.941 55.337 107.551C53.7246 107.162 52.4573 106.248 51.8133 105.012L46.9688 95.6788C46.3285 94.4408 46.3644 92.9816 47.0686 91.6215C47.7728 90.2614 49.0879 89.1114 50.7253 88.4237L58.7576 85.0588C59.4132 84.7849 60.1436 84.7185 60.7886 84.8744C61.4336 85.0302 61.9405 85.3955 62.1981 85.8901L63.6515 88.6901C63.9076 89.1853 63.8933 89.769 63.6115 90.313C63.3298 90.8571 62.8038 91.3171 62.1488 91.5921L56.5879 93.9217L59.4946 99.5216L65.0555 97.1921C65.711 96.9181 66.4414 96.8518 67.0864 97.0076C67.7314 97.1634 68.2383 97.5287 68.4959 98.0233L69.9493 100.823C70.2054 101.318 70.1911 101.902 69.9094 102.446C69.6277 102.99 69.1016 103.45 68.4466 103.725ZM51.6942 90.2904C50.7118 90.703 49.9227 91.393 49.5002 92.2091C49.0776 93.0252 49.0561 93.9006 49.4403 94.6434L54.2848 103.977C54.6712 104.719 55.4315 105.266 56.399 105.5C57.3665 105.734 58.462 105.634 59.4454 105.224L67.4793 101.858L66.0244 99.0587L59.2278 101.906C58.9001 102.043 58.5347 102.077 58.2121 101.999C57.8895 101.921 57.6361 101.738 57.5076 101.49L53.632 94.0237C53.5684 93.9011 53.5373 93.7663 53.5407 93.6271C53.544 93.4878 53.5816 93.3468 53.6514 93.2121C53.7212 93.0773 53.8217 92.9515 53.9473 92.8418C54.0729 92.7321 54.2211 92.6407 54.3833 92.5727L61.1799 89.7255L59.7265 86.9255L51.6942 90.2904Z" fill="black"/>
<path d="M88.8365 95.1837L80.8041 98.5486C79.1653 99.2334 77.3393 99.3992 75.7269 99.0096C74.1144 98.62 72.8472 97.7067 72.2031 96.4703L67.3587 87.1371C66.7183 85.8991 66.7542 84.4399 67.4584 83.0798C68.1626 81.7197 69.4777 80.5697 71.1151 79.882L79.1474 76.5171C79.803 76.2432 80.5334 76.1768 81.1784 76.3327C81.8234 76.4885 82.3303 76.8538 82.588 77.3484L84.0413 80.1484C84.2974 80.6436 84.2831 81.2273 84.0014 81.7713C83.7197 82.3154 83.1936 82.7754 82.5386 83.0504L76.9777 85.38L79.8844 90.9799L85.4453 88.6504C86.1008 88.3764 86.8312 88.3101 87.4762 88.4659C88.1212 88.6217 88.6281 88.987 88.8858 89.4816L90.3391 92.2816C90.5953 92.7768 90.5809 93.3605 90.2992 93.9045C90.0175 94.4486 89.4914 94.9086 88.8365 95.1837V95.1837ZM72.084 81.7487C71.1016 82.1613 70.3125 82.8513 69.89 83.6674C69.4674 84.4835 69.4459 85.3589 69.8301 86.1017L74.6746 95.4349C75.061 96.1768 75.8214 96.7247 76.7888 96.9585C77.7563 97.1923 78.8519 97.0928 79.8352 96.6819L87.8692 93.3163L86.4142 90.517L79.6176 93.3642C79.2899 93.5015 78.9246 93.5348 78.602 93.4569C78.2794 93.379 78.0259 93.1961 77.8974 92.9486L74.0218 85.482C73.9582 85.3594 73.9272 85.2246 73.9305 85.0854C73.9338 84.9461 73.9714 84.8051 74.0412 84.6704C74.111 84.5356 74.2115 84.4098 74.3371 84.3001C74.4627 84.1904 74.6109 84.099 74.7732 84.031L81.5697 81.1838L80.1164 78.3838L72.084 81.7487Z" fill="black"/>
</g>
<path d="M91.79 82.3087C95.9109 82.3087 99.2515 78.9681 99.2515 74.8473C99.2515 70.7264 95.9109 67.3857 91.79 67.3857C87.6691 67.3857 84.3285 70.7264 84.3285 74.8473C84.3285 78.9681 87.6691 82.3087 91.79 82.3087Z" fill="#EDA751"/>
</g>
<defs>
<clipPath id="clip0_17_94">
<rect width="128" height="128" fill="white"/>
</clipPath>
<clipPath id="clip1_17_94">
<rect width="64.3105" height="50.4751" fill="white" transform="matrix(0.922338 -0.386384 0.460694 0.887559 26.6425 82.6047)"/>
</clipPath>
</defs>
</svg>
