<svg width="16" height="16" viewBox="0 0 16 16" fill="none" xmlns="http://www.w3.org/2000/svg">
<g clip-path="url(#clip0_17_94)">
<path d="M12.0645 14.858H9.43936C9.01505 14.858 8.67108 14.5141 8.67108 14.0898C8.67108 13.6654 9.01505 13.3215 9.43936 13.3215H12.0645C12.4888 13.3215 12.8327 13.6654 12.8327 14.0898C12.8327 14.5141 12.4888 14.858 12.0645 14.858Z" fill="#EDA751"/>
<path opacity="0.2" d="M12.0645 14.858H9.43936C9.01505 14.858 8.67108 14.5141 8.67108 14.0898C8.67108 13.6654 9.01505 13.3215 9.43936 13.3215H12.0645C12.4888 13.3215 12.8327 13.6654 12.8327 14.0898C12.8327 14.5141 12.4888 14.858 12.0645 14.858Z" fill="#A35F00"/>
<path d="M2.91968 14.6196C2.55943 14.6196 2.25561 14.4997 2.02368 14.3597C1.29805 13.9216 1.12936 13.2081 0.980551 12.5786C0.826707 11.9279 0.708926 11.5159 0.245207 11.2558C0.0138946 11.1262 -0.0684492 10.8335 0.0612696 10.6022C0.190926 10.3709 0.483488 10.2884 0.714957 10.4182C1.57002 10.8977 1.76136 11.7072 1.91514 12.3577C2.05443 12.9468 2.15821 13.319 2.52005 13.5375C2.74464 13.6731 3.0398 13.7662 3.5263 13.4287C3.93571 13.1448 4.31921 12.6717 4.65758 12.2542C4.69724 12.2053 4.73602 12.1575 4.77393 12.1111C4.9418 11.9057 5.2443 11.8753 5.44958 12.043C5.65496 12.2108 5.68543 12.5133 5.51768 12.7187C5.48049 12.7642 5.44249 12.8111 5.40364 12.859C5.04361 13.3031 4.59555 13.8559 4.07368 14.2178C3.64764 14.5134 3.25868 14.6196 2.91968 14.6196Z" fill="#EDA751"/>
<path opacity="0.2" d="M5.44981 12.043C5.24453 11.8753 4.94203 11.9057 4.77415 12.1111C4.73628 12.1575 4.69746 12.2054 4.65781 12.2543C4.31943 12.6717 3.93593 13.1448 3.52653 13.4288C3.44778 13.4834 3.37409 13.5266 3.30487 13.5603C3.47862 13.8351 3.68703 14.0883 3.9245 14.3147C3.97378 14.2849 4.02356 14.2528 4.0739 14.2179C4.59578 13.8559 5.04384 13.3032 5.40387 12.8591C5.44275 12.8111 5.48075 12.7642 5.5179 12.7187C5.68565 12.5133 5.65518 12.2108 5.44981 12.043Z" fill="#C18F00"/>
<path d="M0.715384 10.4182C0.483916 10.2884 0.191353 10.3709 0.0616968 10.6022C-0.0680219 10.8335 0.0143218 11.1262 0.245634 11.2558C0.355759 11.3176 0.446197 11.3881 0.522416 11.4681C0.737697 11.3273 0.981322 11.0778 1.11304 10.7039C0.999134 10.6001 0.868009 10.5038 0.715384 10.4182Z" fill="#FCD79D"/>
<path d="M6.89092 14.8581C8.84808 14.8581 10.4347 13.3839 10.4347 11.5653C10.4347 9.74671 8.84808 8.27247 6.89092 8.27247C4.93376 8.27247 3.34717 9.74671 3.34717 11.5653C3.34717 13.3839 4.93376 14.8581 6.89092 14.8581Z" fill="#FCD690"/>
<path opacity="0.1" d="M6.37357 14.823C4.75426 13.7598 5.2561 11.5808 5.53097 10.6279V8.52384C4.24891 9.01947 3.34741 10.1944 3.34741 11.5652C3.34741 13.2204 4.66179 14.5902 6.37357 14.823Z" fill="#C18F00"/>
<path d="M4.73451 5.8555C5.42791 5.27366 5.89088 4.29691 4.91282 2.85303C3.92704 1.39775 2.45938 1.03294 1.31354 1.16794C1.03104 1.20122 0.794039 1.4001 0.712195 1.67253C0.380289 2.7775 0.484664 4.28622 1.74666 5.50972C2.99882 6.72366 4.0411 6.43735 4.73451 5.8555Z" fill="#EDA751"/>
<path d="M0.666096 1.84159C0.394002 2.92803 0.547845 4.34744 1.74669 5.50972C2.83197 6.56191 3.75944 6.48672 4.43891 6.06922C3.97163 2.89694 1.93028 2.05569 0.666096 1.84159Z" fill="#FF91AB"/>
<path d="M9.04756 5.8555C8.35416 5.27366 7.89119 4.29691 8.86925 2.85303C9.85503 1.39775 11.3227 1.03294 12.4685 1.16794C12.751 1.20122 12.988 1.4001 13.0699 1.67253C13.4018 2.7775 13.2974 4.28622 12.0354 5.50972C10.7833 6.72366 9.74097 6.43735 9.04756 5.8555Z" fill="#EDA751"/>
<path d="M13.116 1.84159C13.388 2.92803 13.2342 4.34744 12.0354 5.50972C10.9501 6.56191 10.0226 6.48672 9.34314 6.06922C9.81045 2.89694 11.8518 2.05569 13.116 1.84159Z" fill="#FF91AB"/>
<path d="M12.9241 6.73369C12.9241 9.49212 10.223 10.7003 6.89109 10.7003C3.55919 10.7003 0.858154 9.49212 0.858154 6.73369C0.858154 3.97525 3.55922 1.73909 6.89109 1.73909C10.223 1.73909 12.9241 3.97525 12.9241 6.73369Z" fill="#FCD690"/>
<path opacity="0.1" d="M3.66975 2.51022C1.98016 3.39534 0.858093 4.95594 0.858093 6.73366C0.858093 9.10491 2.85409 10.3305 5.531 10.6279C1.68837 8.3326 2.18953 5.24519 3.66975 2.51022Z" fill="#C18F00"/>
<path d="M4.35315 7.75828C4.95643 7.75828 5.44549 7.36883 5.44549 6.88841C5.44549 6.40799 4.95643 6.01853 4.35315 6.01853C3.74986 6.01853 3.2608 6.40799 3.2608 6.88841C3.2608 7.36883 3.74986 7.75828 4.35315 7.75828Z" fill="#FF91AB"/>
<path d="M10.2741 7.75828C10.8774 7.75828 11.3665 7.36882 11.3665 6.8884C11.3665 6.40798 10.8774 6.01853 10.2741 6.01853C9.67082 6.01853 9.18176 6.40798 9.18176 6.8884C9.18176 7.36882 9.67082 7.75828 10.2741 7.75828Z" fill="#FF91AB"/>
<path d="M4.98981 6.25503C4.86034 6.25503 4.75543 6.15013 4.75543 6.02066V5.63491C4.75543 5.50544 4.86034 5.40053 4.98981 5.40053C5.11928 5.40053 5.22418 5.50544 5.22418 5.63491V6.02066C5.22418 6.15013 5.11924 6.25503 4.98981 6.25503Z" fill="#495059"/>
<path d="M9.63745 6.25503C9.50798 6.25503 9.40308 6.15013 9.40308 6.02066V5.63491C9.40308 5.50544 9.50798 5.40053 9.63745 5.40053C9.76689 5.40053 9.87183 5.50544 9.87183 5.63491V6.02066C9.87183 6.15013 9.76689 6.25503 9.63745 6.25503Z" fill="#495059"/>
<path d="M7.31362 6.55125C7.01103 6.55125 6.72331 6.42022 6.52424 6.19172C6.43918 6.09413 6.44937 5.9461 6.54696 5.86106C6.64453 5.776 6.79259 5.78619 6.87762 5.88381C6.98765 6.0101 7.14656 6.0825 7.31359 6.0825C7.48062 6.0825 7.63949 6.0101 7.74953 5.88381C7.83456 5.78619 7.98259 5.77603 8.08018 5.86106C8.17778 5.9461 8.18796 6.09413 8.10293 6.19172C7.9039 6.42019 7.61621 6.55125 7.31362 6.55125Z" fill="#495059"/>
<path d="M2.81294 7.02144C2.70794 7.02144 2.61235 6.95034 2.58572 6.84381C2.55435 6.71822 2.63069 6.591 2.75628 6.55959C3.05638 6.48463 3.77144 6.43119 4.11966 6.47716C4.24797 6.49413 4.33825 6.61188 4.32131 6.74022C4.30435 6.86853 4.18666 6.95872 4.05825 6.94188C3.77456 6.90444 3.1181 6.95234 2.86994 7.01434C2.85088 7.01913 2.83175 7.02144 2.81294 7.02144Z" fill="#495059"/>
<path d="M3.16085 8.31575C3.08897 8.31575 3.01807 8.28278 2.9721 8.22053C2.89522 8.11641 2.91732 7.96966 3.02147 7.89278C3.27029 7.70909 3.91104 7.38722 4.2506 7.29706C4.37575 7.26391 4.50407 7.33834 4.53729 7.46344C4.5705 7.58856 4.496 7.71691 4.37091 7.75012C4.09422 7.82359 3.50563 8.118 3.29988 8.26991C3.25797 8.30081 3.20916 8.31575 3.16085 8.31575Z" fill="#495059"/>
<path d="M11.8144 7.02144C11.7955 7.02144 11.7764 7.01916 11.7574 7.01438C11.5092 6.95238 10.8528 6.90447 10.5691 6.94191C10.441 6.95872 10.323 6.86859 10.306 6.74025C10.2891 6.61191 10.3793 6.49416 10.5077 6.47719C10.8559 6.43116 11.571 6.48466 11.871 6.55963C11.9966 6.59103 12.073 6.71825 12.0416 6.84384C12.0149 6.95031 11.9193 7.02144 11.8144 7.02144Z" fill="#495059"/>
<path d="M11.4664 8.31575C11.418 8.31575 11.3693 8.30081 11.3274 8.26991C11.1217 8.11803 10.533 7.82359 10.2564 7.75012C10.1313 7.71691 10.0568 7.58856 10.09 7.46344C10.1232 7.33834 10.2514 7.26391 10.3767 7.29706C10.7162 7.38722 11.357 7.70909 11.6058 7.89278C11.71 7.96966 11.7321 8.11641 11.6552 8.22053C11.6092 8.28278 11.5383 8.31575 11.4664 8.31575Z" fill="#495059"/>
<path d="M9.51615 14.858H6.89102C6.46671 14.858 6.12274 14.5141 6.12274 14.0897C6.12274 13.6654 6.46671 13.3215 6.89102 13.3215H9.51615C9.94046 13.3215 10.2844 13.6654 10.2844 14.0897C10.2844 14.5141 9.94046 14.858 9.51615 14.858Z" fill="#EDA751"/>
<path d="M7.20657 10.285C7.2886 10.2998 7.36957 10.3284 7.44632 10.3716C7.81616 10.5796 7.94729 11.0481 7.73926 11.4179C7.38704 12.0441 6.49657 12.4918 5.62195 12.4824C4.74198 12.4729 3.99276 12.01 3.56604 11.212C3.36594 10.8378 3.5071 10.3723 3.88126 10.1722C4.25538 9.97215 4.72095 10.1133 4.92104 10.4875C5.07901 10.7829 5.29316 10.9283 5.59491 10.9445C5.98332 10.9656 6.33482 10.7566 6.40182 10.6613C6.56729 10.3704 6.89445 10.2285 7.20657 10.285ZM6.40004 10.6646C6.40007 10.6645 6.4001 10.6644 6.40016 10.6643C6.40013 10.6644 6.40007 10.6645 6.40004 10.6646Z" fill="#EDA751"/>
<g clip-path="url(#clip1_17_94)">
<path d="M10.0875 8.48915L4.83553 10.6893C4.49429 10.8322 4.3261 11.1571 4.45988 11.4148L6.03434 14.4481C6.16811 14.7058 6.5532 14.7989 6.89444 14.6559L12.1464 12.4558C12.4876 12.3128 12.6558 11.988 12.522 11.7303L10.9476 8.69697C10.8138 8.43924 10.4287 8.34619 10.0875 8.48915Z" fill="#2D4A60"/>
<path d="M8.49532 12.849L7.49126 13.2696C7.32739 13.3383 7.14471 13.3549 6.98342 13.316C6.82212 13.277 6.69541 13.1855 6.63117 13.0618L6.02561 11.8951C5.96137 11.7714 5.96486 11.6254 6.0353 11.4893C6.10575 11.3533 6.23738 11.2383 6.40125 11.1696L7.40531 10.749C7.42559 10.7405 7.44725 10.7351 7.46903 10.7331C7.49081 10.7311 7.5123 10.7326 7.53227 10.7374C7.55224 10.7423 7.57029 10.7504 7.5854 10.7613C7.60051 10.7722 7.61237 10.7857 7.62033 10.801L7.80199 11.151C7.81805 11.1819 7.81718 11.2184 7.79957 11.2524C7.78196 11.2864 7.74905 11.3152 7.70809 11.3323L6.8585 11.6882L7.34296 12.6216L8.19254 12.2657C8.23351 12.2485 8.27917 12.2443 8.31949 12.2541C8.35982 12.2638 8.39149 12.2867 8.40755 12.3176L8.58922 12.6676C8.59717 12.6829 8.60106 12.6998 8.60064 12.7172C8.60023 12.7346 8.59553 12.7522 8.58681 12.7691C8.57809 12.7859 8.56552 12.8016 8.54982 12.8154C8.53412 12.8291 8.5156 12.8405 8.49532 12.849V12.849Z" fill="#EAEFF0"/>
<path d="M11.044 11.7813L10.04 12.2019C9.8761 12.2705 9.69342 12.2872 9.53212 12.2482C9.37082 12.2093 9.24412 12.1178 9.17988 11.9941L8.57432 10.8274C8.51008 10.7037 8.51356 10.5577 8.58401 10.4216C8.65445 10.2856 8.78609 10.1706 8.94996 10.1019L9.95401 9.6813C9.9743 9.6728 9.99595 9.66741 10.0177 9.66542C10.0395 9.66343 10.061 9.66489 10.081 9.66972C10.1009 9.67454 10.119 9.68264 10.1341 9.69354C10.1492 9.70445 10.1611 9.71794 10.169 9.73327L10.3507 10.0833C10.3668 10.1142 10.3659 10.1507 10.3483 10.1847C10.3307 10.2187 10.2978 10.2475 10.2568 10.2646L9.40721 10.6205L9.89166 11.5539L10.7412 11.198C10.7822 11.1808 10.8279 11.1766 10.8682 11.1864C10.9085 11.1961 10.9402 11.219 10.9563 11.2499L11.1379 11.5999C11.1459 11.6152 11.1498 11.6321 11.1493 11.6495C11.1489 11.6669 11.1442 11.6845 11.1355 11.7014C11.1268 11.7182 11.1142 11.7339 11.0985 11.7476C11.0828 11.7614 11.0643 11.7728 11.044 11.7813V11.7813Z" fill="#EAEFF0"/>
<path d="M12.2069 12.5724L9.5809 13.6725L6.95492 14.7726C6.75007 14.8582 6.52182 14.8789 6.32027 14.8302C6.11872 14.7815 5.96031 14.6674 5.87981 14.5128L4.30534 11.4795C4.2253 11.3247 4.22978 11.1423 4.31781 10.9723C4.40584 10.8023 4.57023 10.6586 4.7749 10.5726L10.0268 8.37248C10.2317 8.28687 10.4599 8.26614 10.6615 8.31484C10.8631 8.36355 11.0215 8.4777 11.102 8.63225L12.6764 11.6656C12.7565 11.8203 12.752 12.0027 12.664 12.1727C12.5759 12.3427 12.4115 12.4865 12.2069 12.5724ZM4.89601 10.8059C4.77321 10.8575 4.67458 10.9438 4.62176 11.0458C4.56895 11.1478 4.56625 11.2572 4.61428 11.3501L6.18874 14.3834C6.23705 14.4761 6.33209 14.5446 6.45302 14.5738C6.57395 14.603 6.7109 14.5906 6.83381 14.5392L12.0858 12.3391C12.2086 12.2875 12.3072 12.2013 12.36 12.0993C12.4128 11.9973 12.4155 11.8878 12.3675 11.795L10.793 8.76167C10.7447 8.66894 10.6497 8.60045 10.5287 8.57123C10.4078 8.54201 10.2709 8.55444 10.148 8.6058L4.89601 10.8059Z" fill="black"/>
<path d="M8.55581 12.9657L7.55176 13.3863C7.3469 13.4719 7.11866 13.4926 6.91711 13.4439C6.71555 13.3952 6.55715 13.2811 6.47664 13.1265L5.87108 11.9598C5.79104 11.8051 5.79552 11.6227 5.88355 11.4527C5.97158 11.2827 6.13596 11.1389 6.34064 11.053L7.34468 10.6324C7.42662 10.5981 7.51793 10.5898 7.59855 10.6093C7.67917 10.6288 7.74254 10.6744 7.77474 10.7363L7.95641 11.0863C7.98843 11.1482 7.98663 11.2211 7.95142 11.2891C7.91621 11.3571 7.85045 11.4146 7.76857 11.449L7.07346 11.7402L7.4368 12.4402L8.13191 12.149C8.21385 12.1148 8.30515 12.1065 8.38578 12.1259C8.4664 12.1454 8.52977 12.1911 8.56197 12.2529L8.74364 12.6029C8.77566 12.6648 8.77386 12.7378 8.73865 12.8058C8.70344 12.8738 8.63768 12.9313 8.55581 12.9657ZM6.46175 11.2863C6.33895 11.3379 6.24032 11.4241 6.1875 11.5261C6.13468 11.6281 6.13199 11.7376 6.18002 11.8304L6.78557 12.9971C6.83388 13.0898 6.92892 13.1583 7.04985 13.1875C7.17079 13.2167 7.30773 13.2043 7.43065 13.1529L8.43489 12.7322L8.25302 12.3823L7.40345 12.7382C7.36249 12.7554 7.31682 12.7596 7.27649 12.7498C7.23617 12.7401 7.20449 12.7172 7.18843 12.6863L6.70397 11.753C6.69602 11.7376 6.69214 11.7208 6.69256 11.7034C6.69298 11.686 6.69768 11.6684 6.7064 11.6515C6.71512 11.6347 6.72769 11.6189 6.74339 11.6052C6.75909 11.5915 6.77761 11.5801 6.7979 11.5716L7.64746 11.2157L7.4658 10.8657L6.46175 11.2863Z" fill="black"/>
<path d="M11.1046 11.898L10.1005 12.3186C9.89567 12.4042 9.66743 12.4249 9.46587 12.3762C9.26432 12.3275 9.10591 12.2133 9.02541 12.0588L8.41985 10.8921C8.33981 10.7374 8.34429 10.555 8.43232 10.385C8.52034 10.215 8.68473 10.0712 8.8894 9.98525L9.89345 9.56464C9.97539 9.5304 10.0667 9.52211 10.1473 9.54159C10.2279 9.56107 10.2913 9.60673 10.3235 9.66856L10.5052 10.0186C10.5372 10.0805 10.5354 10.1534 10.5002 10.2214C10.465 10.2894 10.3992 10.3469 10.3173 10.3813L9.62223 10.6725L9.98557 11.3725L10.6807 11.0813C10.7626 11.0471 10.8539 11.0388 10.9345 11.0582C11.0152 11.0777 11.0785 11.1234 11.1107 11.1852L11.2924 11.5352C11.3244 11.5971 11.3226 11.6701 11.2874 11.7381C11.2522 11.8061 11.1864 11.8636 11.1046 11.898V11.898ZM9.01052 10.2186C8.88771 10.2702 8.78908 10.3564 8.73626 10.4584C8.68345 10.5604 8.68076 10.6699 8.72878 10.7627L9.33434 11.9294C9.38264 12.0221 9.47769 12.0906 9.59862 12.1198C9.71955 12.149 9.8565 12.1366 9.97942 12.0852L10.9837 11.6645L10.8018 11.3146L9.95222 11.6705C9.91125 11.6877 9.86559 11.6919 9.82526 11.6821C9.78494 11.6724 9.75326 11.6495 9.73719 11.6186L9.25274 10.6852C9.24479 10.6699 9.24091 10.6531 9.24133 10.6357C9.24174 10.6183 9.24645 10.6006 9.25517 10.5838C9.26389 10.567 9.27646 10.5512 9.29216 10.5375C9.30786 10.5238 9.32638 10.5124 9.34666 10.5039L10.1962 10.148L10.0146 9.79798L9.01052 10.2186Z" fill="black"/>
</g>
<path d="M11.4738 10.2886C11.9889 10.2886 12.4065 9.87101 12.4065 9.35591C12.4065 8.8408 11.9889 8.42322 11.4738 8.42322C10.9587 8.42322 10.5411 8.8408 10.5411 9.35591C10.5411 9.87101 10.9587 10.2886 11.4738 10.2886Z" fill="#EDA751"/>
</g>
<defs>
<clipPath id="clip0_17_94">
<rect width="16" height="16" fill="white"/>
</clipPath>
<clipPath id="clip1_17_94">
<rect width="8.03881" height="6.30938" fill="white" transform="matrix(0.922338 -0.386384 0.460694 0.887559 3.33032 10.3256)"/>
</clipPath>
</defs>
</svg>
