<svg width="221" height="246" viewBox="0 0 221 246" fill="none" xmlns="http://www.w3.org/2000/svg">
<g clip-path="url(#clip0_16_37)">
<path d="M166.64 228.442H130.381C124.521 228.442 119.769 223.154 119.769 216.63C119.769 210.106 124.521 204.818 130.381 204.818H166.64C172.501 204.818 177.252 210.106 177.252 216.63C177.252 223.154 172.501 228.442 166.64 228.442Z" fill="#EDA751"/>
<path opacity="0.2" d="M166.64 228.442H130.381C124.521 228.442 119.769 223.154 119.769 216.63C119.769 210.106 124.521 204.818 130.381 204.818H166.64C172.501 204.818 177.252 210.106 177.252 216.63C177.252 223.154 172.501 228.442 166.64 228.442Z" fill="#A35F00"/>
<path d="M40.3304 224.776C35.3544 224.776 31.158 222.933 27.9544 220.78C17.9317 214.044 15.6017 203.074 13.5462 193.396C11.4212 183.391 9.79438 177.057 3.38927 173.059C0.194265 171.065 -0.943108 166.565 0.848632 163.008C2.63951 159.452 6.68053 158.184 9.87769 160.18C21.6882 167.552 24.3312 179.998 26.4553 189.999C28.3791 199.057 29.8126 204.78 34.8106 208.139C37.9128 210.223 41.9896 211.655 48.7094 206.467C54.3643 202.101 59.6614 194.827 64.3352 188.409C64.883 187.657 65.4186 186.922 65.9422 186.208C68.261 183.05 72.4393 182.583 75.2747 185.161C78.1114 187.741 78.5323 192.392 76.2152 195.549C75.7016 196.249 75.1767 196.97 74.6402 197.707C69.6673 204.536 63.4784 213.034 56.27 218.599C50.3854 223.144 45.0128 224.776 40.3304 224.776Z" fill="#EDA751"/>
<path opacity="0.2" d="M75.2751 185.162C72.4396 182.583 68.2614 183.05 65.9426 186.209C65.4194 186.922 64.8833 187.658 64.3356 188.41C59.6618 194.828 54.3647 202.101 48.7098 206.468C47.622 207.307 46.6042 207.971 45.6481 208.489C48.0481 212.715 50.9267 216.608 54.2067 220.088C54.8874 219.63 55.575 219.137 56.2704 218.6C63.4788 213.035 69.6676 204.536 74.6406 197.708C75.1775 196.971 75.7024 196.25 76.2156 195.55C78.5327 192.393 78.1118 187.742 75.2751 185.162Z" fill="#C18F00"/>
<path d="M9.87812 160.18C6.68096 158.184 2.63994 159.452 0.849059 163.008C-0.942681 166.565 0.194692 171.065 3.3897 173.059C4.9108 174.008 6.15996 175.091 7.21274 176.322C10.1863 174.158 13.5514 170.321 15.3707 164.573C13.7974 162.976 11.9863 161.496 9.87812 160.18Z" fill="#FCD79D"/>
<path d="M95.1811 228.443C122.214 228.443 144.129 205.777 144.129 177.816C144.129 149.856 122.214 127.189 95.1811 127.189C68.1478 127.189 46.233 149.856 46.233 177.816C46.233 205.777 68.1478 228.443 95.1811 228.443Z" fill="#FCD690"/>
<path opacity="0.1" d="M88.0352 227.903C65.6685 211.557 72.6002 178.055 76.3969 163.404V131.054C58.6884 138.674 46.2365 156.739 46.2365 177.815C46.2365 203.264 64.3913 224.325 88.0352 227.903Z" fill="#C18F00"/>
<path d="M65.3957 90.0283C74.9734 81.0825 81.3682 66.0649 67.8587 43.8653C54.2426 21.4904 33.9706 15.8814 18.1436 17.957C14.2416 18.4687 10.968 21.5264 9.83755 25.7152C5.25309 42.7041 6.69477 65.9006 24.1261 84.7119C41.4216 103.376 55.8181 98.9742 65.3957 90.0283Z" fill="#EDA751"/>
<path d="M9.20086 28.3145C5.44256 45.0185 7.56753 66.8419 24.1266 84.7119C39.117 100.889 51.9277 99.7333 61.3128 93.3142C54.8585 44.5404 26.6624 31.6062 9.20086 28.3145Z" fill="#FF91AB"/>
<path d="M124.969 90.0283C115.392 81.0825 108.997 66.0649 122.506 43.8653C136.123 21.4904 156.395 15.8814 172.222 17.957C176.124 18.4687 179.397 21.5264 180.528 25.7152C185.112 42.7041 183.67 65.9006 166.239 84.7119C148.944 103.376 134.547 98.9742 124.969 90.0283Z" fill="#EDA751"/>
<path d="M181.164 28.3145C184.923 45.0185 182.798 66.8419 166.239 84.7119C151.248 100.889 138.438 99.7333 129.052 93.3142C135.507 44.5404 163.703 31.6062 181.164 28.3145Z" fill="#FF91AB"/>
<path d="M178.513 103.53C178.513 145.941 141.205 164.517 95.1828 164.517C49.1608 164.517 11.8528 145.941 11.8528 103.53C11.8528 61.1195 49.1613 26.7386 95.1828 26.7386C141.205 26.7386 178.513 61.1195 178.513 103.53Z" fill="#FCD690"/>
<path opacity="0.1" d="M50.6884 38.5946C27.3509 52.2034 11.8524 76.1975 11.8524 103.53C11.8524 139.988 39.4222 158.832 76.3969 163.404C23.3207 128.114 30.2429 80.6447 50.6884 38.5946Z" fill="#C18F00"/>
<path d="M60.1275 119.284C68.4604 119.284 75.2155 113.296 75.2155 105.909C75.2155 98.5228 68.4604 92.5349 60.1275 92.5349C51.7947 92.5349 45.0396 98.5228 45.0396 105.909C45.0396 113.296 51.7947 119.284 60.1275 119.284Z" fill="#FF91AB"/>
<path d="M141.911 119.284C150.243 119.284 156.999 113.296 156.999 105.909C156.999 98.5228 150.243 92.5349 141.911 92.5349C133.578 92.5349 126.823 98.5228 126.823 105.909C126.823 113.296 133.578 119.284 141.911 119.284Z" fill="#FF91AB"/>
<path d="M68.9218 96.1711C67.1335 96.1711 65.6845 94.5582 65.6845 92.5676V86.6367C65.6845 84.6461 67.1335 83.0332 68.9218 83.0332C70.7101 83.0332 72.1591 84.6461 72.1591 86.6367V92.5676C72.1591 94.5582 70.7097 96.1711 68.9218 96.1711Z" fill="#495059"/>
<path d="M133.117 96.1711C131.329 96.1711 129.88 94.5582 129.88 92.5676V86.6367C129.88 84.6461 131.329 83.0332 133.117 83.0332C134.905 83.0332 136.354 84.6461 136.354 86.6367V92.5676C136.354 94.5582 134.905 96.1711 133.117 96.1711Z" fill="#495059"/>
<path d="M101.019 100.725C96.8399 100.725 92.8658 98.7109 90.1162 95.1977C88.9413 93.6972 89.082 91.4212 90.43 90.1138C91.7776 88.806 93.8227 88.9626 94.9972 90.4636C96.517 92.4052 98.7119 93.5184 101.019 93.5184C103.326 93.5184 105.521 92.4052 107.04 90.4636C108.215 88.9626 110.26 88.8065 111.608 90.1138C112.956 91.4212 113.096 93.6972 111.922 95.1977C109.173 98.7104 105.199 100.725 101.019 100.725Z" fill="#495059"/>
<path d="M38.8537 107.955C37.4034 107.955 36.083 106.862 35.7152 105.224C35.2819 103.293 36.3364 101.337 38.0711 100.854C42.2162 99.7011 52.093 98.8795 56.9028 99.5863C58.6751 99.8472 59.9221 101.658 59.6881 103.631C59.4538 105.604 57.8282 106.99 56.0546 106.731C52.1361 106.156 43.0687 106.892 39.641 107.846C39.3777 107.919 39.1136 107.955 38.8537 107.955Z" fill="#495059"/>
<path d="M43.6592 127.855C42.6664 127.855 41.687 127.348 41.0521 126.391C39.9902 124.79 40.2954 122.533 41.7341 121.352C45.1708 118.527 54.0211 113.578 58.7114 112.192C60.4401 111.683 62.2124 112.827 62.6712 114.75C63.1301 116.674 62.101 118.647 60.3732 119.158C56.5514 120.288 48.4215 124.814 45.5796 127.15C45.0007 127.625 44.3265 127.855 43.6592 127.855Z" fill="#495059"/>
<path d="M163.186 107.955C162.925 107.955 162.662 107.92 162.398 107.846C158.971 106.893 149.904 106.156 145.985 106.732C144.215 106.99 142.586 105.605 142.351 103.631C142.117 101.658 143.364 99.8477 145.137 99.5868C149.946 98.879 159.824 99.7016 163.968 100.854C165.703 101.337 166.757 103.293 166.324 105.224C165.956 106.861 164.636 107.955 163.186 107.955Z" fill="#495059"/>
<path d="M158.38 127.855C157.712 127.855 157.038 127.625 156.46 127.15C153.618 124.815 145.487 120.288 141.666 119.158C139.938 118.647 138.909 116.674 139.368 114.75C139.827 112.827 141.598 111.683 143.328 112.192C148.018 113.578 156.869 118.527 160.305 121.352C161.744 122.533 162.049 124.79 160.987 126.391C160.352 127.348 159.372 127.855 158.38 127.855Z" fill="#495059"/>
<path d="M131.442 228.442H95.1828C89.322 228.442 84.5709 223.154 84.5709 216.63C84.5709 210.106 89.322 204.817 95.1828 204.817H131.442C137.303 204.817 142.054 210.106 142.054 216.63C142.054 223.154 137.303 228.442 131.442 228.442Z" fill="#EDA751"/>
<path d="M99.5408 158.132C100.674 158.36 101.792 158.8 102.852 159.464C107.961 162.662 109.772 169.864 106.899 175.55C102.034 185.178 89.734 192.061 77.6532 191.917C65.4986 191.771 55.1501 184.654 49.256 172.385C46.4922 166.632 48.4419 159.475 53.61 156.398C58.7776 153.322 65.2081 155.492 67.9719 161.245C70.1539 165.787 73.1119 168.022 77.2798 168.272C82.6447 168.596 87.4998 165.383 88.4252 163.918C90.7108 159.445 95.2296 157.263 99.5408 158.132ZM88.4006 163.967C88.4011 163.967 88.4015 163.966 88.4024 163.964C88.4019 163.965 88.4011 163.967 88.4006 163.967Z" fill="#EDA751"/>
<g clip-path="url(#clip1_16_37)">
<path d="M139.333 130.521L66.7903 164.348C62.0769 166.546 59.7538 171.54 61.6016 175.502L83.3488 222.139C85.1966 226.102 90.5156 227.533 95.229 225.335L167.771 191.508C172.485 189.31 174.808 184.316 172.96 180.353L151.213 133.716C149.365 129.753 144.046 128.323 139.333 130.521Z" fill="#2D4A60"/>
<path d="M117.341 197.553L103.473 204.02C101.209 205.076 98.6859 205.332 96.458 204.733C94.2301 204.134 92.4799 202.728 91.5926 200.825L83.2283 182.888C82.341 180.985 82.3891 178.741 83.3622 176.649C84.3352 174.557 86.1534 172.789 88.4168 171.733L102.285 165.266C102.566 165.135 102.865 165.052 103.166 165.022C103.466 164.991 103.763 165.014 104.039 165.088C104.315 165.162 104.564 165.287 104.773 165.454C104.982 165.622 105.145 165.829 105.255 166.065L107.765 171.446C107.986 171.922 107.974 172.483 107.731 173.006C107.488 173.529 107.033 173.971 106.467 174.235L94.7326 179.707L101.424 194.057L113.159 188.585C113.725 188.321 114.356 188.257 114.913 188.407C115.47 188.556 115.907 188.908 116.129 189.383L118.638 194.765C118.748 195 118.802 195.259 118.796 195.527C118.79 195.794 118.725 196.065 118.605 196.324C118.484 196.583 118.311 196.825 118.094 197.036C117.877 197.247 117.621 197.423 117.341 197.553V197.553Z" fill="#EAEFF0"/>
<path d="M152.545 181.137L138.677 187.604C136.413 188.66 133.89 188.916 131.662 188.317C129.434 187.717 127.684 186.312 126.797 184.409L118.433 166.472C117.545 164.569 117.593 162.324 118.567 160.233C119.54 158.141 121.358 156.373 123.621 155.317L137.49 148.85C137.77 148.719 138.069 148.636 138.37 148.606C138.671 148.575 138.968 148.598 139.243 148.672C139.519 148.746 139.769 148.871 139.977 149.038C140.186 149.206 140.35 149.413 140.46 149.649L142.969 155.03C143.191 155.506 143.179 156.067 142.935 156.59C142.692 157.113 142.238 157.555 141.672 157.819L129.937 163.291L136.628 177.641L148.363 172.169C148.929 171.905 149.56 171.841 150.117 171.991C150.674 172.14 151.111 172.492 151.333 172.967L153.842 178.349C153.952 178.584 154.006 178.843 154 179.111C153.995 179.378 153.93 179.649 153.809 179.908C153.689 180.167 153.515 180.409 153.298 180.62C153.081 180.831 152.826 181.007 152.545 181.137V181.137Z" fill="#EAEFF0"/>
<path d="M168.608 193.301L132.336 210.215L96.0652 227.128C93.2356 228.445 90.083 228.763 87.299 228.014C84.5151 227.266 82.3271 225.511 81.2151 223.134L59.4678 176.497C58.3622 174.118 58.4242 171.314 59.6401 168.7C60.856 166.086 63.1265 163.875 65.9536 162.554L138.496 128.727C141.326 127.411 144.478 127.092 147.262 127.841C150.046 128.59 152.234 130.345 153.346 132.721L175.093 179.358C176.199 181.737 176.137 184.542 174.921 187.156C173.705 189.77 171.435 191.98 168.608 193.301ZM67.6265 166.141C65.9302 166.934 64.5679 168.26 63.8384 169.829C63.1089 171.397 63.0717 173.08 63.735 174.507L85.4823 221.144C86.1495 222.57 87.4623 223.623 89.1327 224.073C90.803 224.522 92.6946 224.331 94.3923 223.541L166.935 189.714C168.631 188.921 169.993 187.595 170.723 186.026C171.452 184.458 171.49 182.775 170.826 181.348L149.079 134.711C148.412 133.285 147.099 132.232 145.429 131.783C143.758 131.333 141.867 131.525 140.169 132.314L67.6265 166.141Z" fill="black"/>
<path d="M118.177 199.347L104.309 205.814C101.479 207.13 98.3268 207.449 95.5428 206.7C92.7588 205.951 90.5709 204.196 89.4589 201.82L81.0946 183.883C79.989 181.503 80.0509 178.699 81.2668 176.085C82.4827 173.471 84.7533 171.261 87.5803 169.939L101.449 163.472C102.581 162.946 103.842 162.818 104.955 163.118C106.069 163.417 106.944 164.12 107.389 165.07L109.898 170.451C110.34 171.403 110.316 172.525 109.829 173.57C109.343 174.616 108.435 175.5 107.304 176.029L97.7025 180.506L102.721 191.268L112.322 186.791C113.454 186.264 114.715 186.137 115.829 186.436C116.942 186.736 117.818 187.438 118.262 188.389L120.772 193.77C121.214 194.721 121.189 195.843 120.703 196.889C120.217 197.934 119.308 198.819 118.177 199.347ZM89.2533 173.527C87.557 174.32 86.1946 175.646 85.4651 177.214C84.7356 178.783 84.6984 180.465 85.3618 181.893L93.726 199.83C94.3932 201.256 95.706 202.309 97.3764 202.758C99.0468 203.207 100.938 203.016 102.636 202.227L116.507 195.758L113.995 190.378L102.26 195.85C101.695 196.114 101.064 196.178 100.507 196.029C99.9499 195.879 99.5123 195.527 99.2904 195.052L92.5989 180.702C92.4891 180.466 92.4355 180.207 92.4413 179.94C92.447 179.672 92.512 179.401 92.6324 179.142C92.7529 178.883 92.9265 178.641 93.1434 178.43C93.3602 178.22 93.616 178.044 93.8962 177.913L105.631 172.441L103.122 167.06L89.2533 173.527Z" fill="black"/>
<path d="M153.382 182.931L139.513 189.398C136.684 190.714 133.531 191.033 130.747 190.284C127.963 189.535 125.775 187.78 124.663 185.404L116.299 167.467C115.193 165.087 115.255 162.283 116.471 159.669C117.687 157.055 119.958 154.845 122.785 153.523L136.653 147.056C137.785 146.53 139.046 146.402 140.16 146.702C141.273 147.001 142.149 147.703 142.593 148.654L145.103 154.035C145.545 154.987 145.52 156.109 145.034 157.154C144.547 158.2 143.639 159.084 142.508 159.613L132.907 164.09L137.926 174.852L147.527 170.375C148.659 169.848 149.92 169.721 151.033 170.02C152.147 170.32 153.022 171.022 153.467 171.972L155.976 177.354C156.418 178.305 156.394 179.427 155.907 180.473C155.421 181.518 154.513 182.402 153.382 182.931V182.931ZM124.458 157.111C122.761 157.904 121.399 159.23 120.67 160.798C119.94 162.367 119.903 164.049 120.566 165.477L128.93 183.414C129.598 184.84 130.91 185.893 132.581 186.342C134.251 186.791 136.143 186.6 137.841 185.81L151.712 179.342L149.2 173.962L137.465 179.434C136.899 179.698 136.268 179.762 135.711 179.612C135.154 179.463 134.717 179.111 134.495 178.636L127.803 164.286C127.694 164.05 127.64 163.791 127.646 163.523C127.651 163.256 127.716 162.985 127.837 162.726C127.957 162.467 128.131 162.225 128.348 162.014C128.565 161.803 128.82 161.628 129.101 161.497L140.835 156.025L138.326 150.644L124.458 157.111Z" fill="black"/>
</g>
<path d="M158.481 158.187C165.596 158.187 171.364 151.767 171.364 143.847C171.364 135.927 165.596 129.507 158.481 129.507C151.366 129.507 145.598 135.927 145.598 143.847C145.598 151.767 151.366 158.187 158.481 158.187Z" fill="#EDA751"/>
</g>
<defs>
<clipPath id="clip0_16_37">
<rect width="221" height="246" fill="white"/>
</clipPath>
<clipPath id="clip1_16_37">
<rect width="113" height="95" fill="white" transform="translate(46 158.756) rotate(-25)"/>
</clipPath>
</defs>
</svg>
